<?xml version="1.0" encoding="utf-8"?>
<!-- Generator: Adobe Illustrator 23.0.5, SVG Export Plug-In . SVG Version: 6.00 Build 0)  -->
<svg version="1.1" id="Capa_1" xmlns="http://www.w3.org/2000/svg" xmlns:xlink="http://www.w3.org/1999/xlink" x="0px" y="0px"
	 viewBox="0 0 890 760" style="enable-background:new 0 0 890 760;" xml:space="preserve">
<style type="text/css">
	.st0{fill:#24B865;stroke:#FFFFFF;stroke-width:1.5916;}
	.st1{enable-background:new    ;}
	.st2{fill:#FFFFFF;}
	.st3{font-family:'MyriadPro-Regular';}
	.st4{font-size:16.835px;}
	.st5{font-family:'ArialHebrew-Light';}
	.st6{font-size:16.8352px;}
	.st7{fill:#24B865;stroke:#FFFFFF;stroke-width:1.0515;}
	.st8{fill:none;stroke:#FFFFFF;stroke-width:1.0515;}
</style>
<image style="overflow:visible;" width="890" height="760" xlink:href="dno075-2020-gh-pages/clase-11/img/JAPAN.png"  transform="matrix(1 0 0 1 9.962 3.5316)">
</image>
<g>
	<path class="st0" d="M609.3,129.6c-4.2,0-7.8,3.5-7.8,8c0,4.4,3.6,8,7.8,8c4.4,0,8-3.6,8-8C617.3,133.1,613.7,129.6,609.3,129.6"/>
	<path class="st0" d="M627,313.3c-4.3,0-7.9,3.5-7.9,8c0,4.4,3.6,8,7.9,8s7.9-3.6,7.9-8C634.9,316.9,631.4,313.3,627,313.3"/>
	<path class="st0" d="M533.5,466.6c-4.3,0-7.9,3.5-7.9,8c0,4.4,3.6,8,7.9,8s7.9-3.6,7.9-8C541.4,470.1,537.8,466.6,533.5,466.6"/>
	<path class="st0" d="M481.2,538.7c-4.3,0-7.9,3.5-7.9,8c0,4.4,3.6,8,7.9,8c4.3,0,7.9-3.6,7.9-8S485.5,538.7,481.2,538.7"/>
	<path class="st0" d="M454.1,528.9c-4.3,0-7.9,3.5-7.9,8c0,4.4,3.6,8,7.9,8c4.3,0,7.9-3.6,7.9-8C462,532.5,458.4,528.9,454.1,528.9"
		/>
	<path class="st0" d="M375,541.5c-4.3,0-7.9,3.5-7.9,8c0,4.4,3.6,8,7.9,8s7.9-3.6,7.9-8C382.8,545,379.2,541.5,375,541.5"/>
	<path class="st0" d="M389.7,542c-4.2,0-7.8,3.5-7.8,8c0,4.4,3.6,8,7.8,8c4.4,0,8-3.6,8-8C397.5,545.6,394.2,542,389.7,542"/>
	<path class="st0" d="M201.8,604.7c-4.2,0-7.8,3.6-7.8,8c0,4.5,3.6,8,7.8,8c4.4,0,8-3.5,8-8C209.7,608.3,206.2,604.7,201.8,604.7"/>
	<path class="st0" d="M219.7,637.9c-4.3,0-7.8,3.5-7.8,8c0,4.4,3.5,8,7.8,8c4.4,0,8-3.6,8-8C227.7,641.5,224.1,637.9,219.7,637.9"/>
	<path class="st0" d="M246.9,622.4c-4.3,0-7.9,3.5-7.9,8c0,4.4,3.6,8,7.9,8s7.9-3.6,7.9-8S251.2,622.4,246.9,622.4"/>
	<path class="st0" d="M541.2,497.7c-4.3,0-7.9,3.5-7.9,8c0,4.4,3.6,8,7.9,8c4.3,0,7.9-3.6,7.9-8S545.5,497.7,541.2,497.7"/>
	<path class="st0" d="M538.3,491.4c-4.3,0-7.9,3.1-7.9,7.2c0,4,3.6,7.2,7.9,7.2s7.9-3.1,7.9-7.2S542.6,491.4,538.3,491.4"/>
</g>
<g>
	<g>
		<text transform="matrix(0.9816 0 0 1 704.8594 321.6685)" class="st1"><tspan x="0" y="0" class="st2 st3 st4">Kamaishi</tspan><tspan x="63.3" y="0" class="st2 st5 st4"> </tspan><tspan x="68" y="0" class="st2 st3 st4">Recovery</tspan></text>
		<text transform="matrix(0.9816 0 0 1 704.8594 342.7114)" class="st1"><tspan x="0" y="0" class="st2 st3 st4">Memorial</tspan><tspan x="66.8" y="0" class="st2 st5 st4"> </tspan><tspan x="71.5" y="0" class="st2 st3 st4">Stadium</tspan></text>
		<text transform="matrix(0.9815 -1.545572e-02 1.517204e-02 0.9999 460.0866 304.0033)" class="st2 st3 st6">Kumagaya</text>
		<text transform="matrix(0.9815 -1.545572e-02 1.517204e-02 0.9999 439.5197 325.6618)" class="st1"><tspan x="0" y="0" class="st2 st5 st6"> </tspan><tspan x="4.7" y="0" class="st2 st3 st6">Rugby</tspan><tspan x="49.9" y="0" class="st2 st5 st6"> </tspan><tspan x="54.6" y="0" class="st2 st3 st6">Stadium</tspan></text>
		<text transform="matrix(0.9816 0 0 1 619.1416 506.4775)" class="st1"><tspan x="0" y="0" class="st2 st3 st4">Tokyo</tspan><tspan x="42.7" y="0" class="st2 st5 st4"> </tspan><tspan x="47.4" y="0" class="st2 st3 st4">Stadium</tspan></text>
		<text transform="matrix(0.9816 0 0 1 628.873 588.1875)" class="st1"><tspan x="0" y="0" class="st2 st3 st4">International</tspan><tspan x="90.5" y="0" class="st2 st5 st4"> </tspan></text>
		<text transform="matrix(0.9816 0 0 1 628.873 609.2314)" class="st1"><tspan x="0" y="0" class="st2 st3 st4">Stadium</tspan><tspan x="58.7" y="0" class="st2 st5 st4"> </tspan><tspan x="63.4" y="0" class="st2 st3 st4">Yokohama</tspan></text>
		<text transform="matrix(0.9816 0 0 1 259.2324 460.1807)" class="st1"><tspan x="0" y="0" class="st2 st3 st4">Kobe</tspan><tspan x="36.4" y="0" class="st2 st5 st4"> </tspan><tspan x="41.1" y="0" class="st2 st3 st4">Misaki</tspan></text>
		<text transform="matrix(0.9816 0 0 1 282.2148 481.2246)" class="st2 st3 st4">Stadium</text>
		<text transform="matrix(0.9816 0 0 1 391.3481 369.8062)" class="st1"><tspan x="0" y="0" class="st2 st3 st4">City</tspan><tspan x="27.2" y="0" class="st2 st5 st4"> </tspan><tspan x="31.9" y="0" class="st2 st3 st4">of</tspan><tspan x="46" y="0" class="st2 st5 st4"> </tspan><tspan x="50.7" y="0" class="st2 st3 st4">Toyota</tspan></text>
		<text transform="matrix(0.9816 0 0 1 420.7222 390.8496)" class="st2 st3 st4">Stadium</text>
		<text transform="matrix(0.9816 0 0 1 26.2617 584.9775)" class="st2 st3 st4">Fukuoka</text>
		<text transform="matrix(0.9816 0 0 1 -4.0005 606.0225)" class="st2 st3 st4">Hakatanomori</text>
		<text transform="matrix(0.9816 0 0 1 26.2617 627.0654)" class="st2 st3 st4">Stadium</text>
		<text transform="matrix(0.9816 0 0 1 86.8345 704.2959)" class="st2 st3 st4">Kumamoto</text>
		<text transform="matrix(0.9816 0 0 1 99.1865 725.3398)" class="st2 st3 st4">Stadium</text>
		<text transform="matrix(0.9816 0 0 1 427.5679 143.4443)" class="st1"><tspan x="0" y="0" class="st2 st3 st4">Sapporo</tspan><tspan x="59.6" y="0" class="st2 st5 st4"> </tspan><tspan x="64.2" y="0" class="st2 st3 st4">Dome</tspan></text>
		<text transform="matrix(0.9816 0 0 1 241.0024 748.4873)" class="st1"><tspan x="0" y="0" class="st2 st3 st4">Oita</tspan><tspan x="29.2" y="0" class="st2 st5 st4"> </tspan><tspan x="33.9" y="0" class="st2 st3 st4">Stadium</tspan></text>
		<text transform="matrix(0.9816 0 0 1 347.9043 642.7666)" class="st2 st3 st4">Hanazono</text>
		<text transform="matrix(0.9816 0 0 1 370.0801 663.4053)" class="st2 st3 st4">Rugby</text>
		<text transform="matrix(0.9816 0 0 1 359.4009 684.8545)" class="st2 st3 st4">Stadium</text>
		<text transform="matrix(0.9816 0 0 1 475.2188 621.3926)" class="st1"><tspan x="0" y="0" class="st2 st3 st4">Shizuoka</tspan><tspan x="63.3" y="0" class="st2 st5 st4"> </tspan></text>
		<text transform="matrix(0.9816 0 0 1 475.2188 642.4365)" class="st2 st3 st4">Stadium</text>
	</g>
	<g>
		<rect x="546.9" y="507.1" class="st7" width="66.2" height="1.4"/>
		<rect x="632.8" y="318.9" class="st7" width="63.5" height="1.4"/>
		<rect x="102" y="610.1" class="st7" width="89.2" height="1.4"/>
		<rect x="538.1" y="138" class="st7" width="54.6" height="1.4"/>
		<g>
			<polygon class="st7" points="249.1,639.1 249.5,739.7 248.2,739.7 247.8,639.1 			"/>
			<g>
				<polygon class="st7" points="450.2,400.3 450.6,524.1 449.2,524.1 448.9,400.3 				"/>
			</g>
			<g>
				<polygon class="st7" points="390.4,558.7 390.8,633.1 389.5,633.1 389.1,558.7 				"/>
			</g>
		</g>
		<g>
			<line class="st8" x1="414.6" y1="446.9" x2="414.6" y2="448.3"/>
		</g>
		<path class="st7" d="M209.7,644.6c-29.6-7.5-60.7,16.2-69.4,52.9l-1.8,0.4c9-38.1,41.3-62.6,72-54.8L209.7,644.6z"/>
		<path class="st7" d="M539.4,515.3c13.5,58.2,56.4,69.7,83.1,72.3l-0.2,1.9c-27.8-2.6-71.9-14-84.8-74.1L539.4,515.3z"/>
		<path class="st7" d="M372.5,540.6c3.4-27.6-15.5-52.9-42.1-56.3l0.2-1.9c27.7,3.6,47.3,29.8,43.8,58.4L372.5,540.6z"/>
		<g>
			<polygon class="st7" points="522.4,332.2 522.8,464.5 521.5,464.5 521.1,332.2 			"/>
		</g>
		<g>
			<polygon class="st7" points="478.3,556.7 478.7,606.8 477.4,606.8 477,556.7 			"/>
		</g>
	</g>
</g>
</svg>
