<?xml version="1.0" encoding="utf-8"?>
<!-- Generator: Adobe Illustrator 23.0.5, SVG Export Plug-In . SVG Version: 6.00 Build 0)  -->
<svg version="1.1" id="Layer_1" xmlns="http://www.w3.org/2000/svg" xmlns:xlink="http://www.w3.org/1999/xlink" x="0px" y="0px"
	 viewBox="0 0 425 179" style="enable-background:new 0 0 425 179;" xml:space="preserve">
<style type="text/css">
	.st0{fill:#FFFFFF;}
	.st1{font-family:'Arial-BoldMT';}
	.st2{font-size:12px;}
	.st3{fill:#24B865;}
	.st4{fill:none;stroke:#FFFFFF;stroke-width:1.25;stroke-linecap:round;stroke-linejoin:round;stroke-miterlimit:10;}
</style>
<text transform="matrix(1 0 0 1 250.7026 155.2148)" class="st0 st1 st2">COACH:</text>
<text transform="matrix(1 0 0 1 220.2026 169.6147)" class="st0 st1 st2">JAMIE JOSEPH (NZ)</text>
<text transform="matrix(1 0 0 1 113.125 155.2156)" class="st0 st1 st2">JAPAN</text>
<g>
	<path id="SVGID_1_" class="st3" d="M182.5,50.4c0,0,9.1,76.1-49,88.5c-58-12.4-49-88.5-49-88.5S117.4,19.8,173,9
		C173,9,180.4,26.8,182.5,50.4z"/>
</g>
<g>
	<path class="st4" d="M182.5,50.4c0,0,9.1,76.1-49,88.5c-58-12.4-49-88.5-49-88.5S117.4,19.8,173,9C173,9,180.4,26.8,182.5,50.4z"/>
</g>
<circle class="st0" cx="135.1" cy="77.4" r="25.9"/>
<image style="overflow:visible;" width="640" height="649" xlink:href="../../../jamie-joseph-jap.png"  transform="matrix(0.1781 0 0 0.1803 224.5 15.45)">
</image>
</svg>
