<?xml version="1.0" encoding="utf-8"?>
<!-- Generator: Adobe Illustrator 23.0.5, SVG Export Plug-In . SVG Version: 6.00 Build 0)  -->
<svg version="1.1" id="Layer_1" xmlns="http://www.w3.org/2000/svg" xmlns:xlink="http://www.w3.org/1999/xlink" x="0px" y="0px"
	 viewBox="0 0 425 179" style="enable-background:new 0 0 425 179;" xml:space="preserve">
<style type="text/css">
	.st0{fill:#FFFFFF;}
	.st1{font-family:'Arial-BoldMT';}
	.st2{font-size:12px;}
	.st3{fill:#24B865;}
	.st4{clip-path:url(#SVGID_3_);}
	.st5{fill:none;stroke:#FFFFFF;stroke-width:0.75;stroke-linecap:round;stroke-linejoin:round;}
	.st6{fill-rule:evenodd;clip-rule:evenodd;fill:#FFFFFF;}
	.st7{fill-rule:evenodd;clip-rule:evenodd;fill:#EC1C24;}
	.st8{opacity:0.2;fill-rule:evenodd;clip-rule:evenodd;fill:#FFFFFF;enable-background:new    ;}
	.st9{fill:none;stroke:#FFFFFF;stroke-width:1.25;stroke-linecap:round;stroke-linejoin:round;stroke-miterlimit:10;}
</style>
<text transform="matrix(1 0 0 1 252.7026 155.2148)" class="st0 st1 st2">COACH:</text>
<text transform="matrix(1 0 0 1 222.2026 169.6148)" class="st0 st1 st2">STEVE HANSEN (NZ)</text>
<text transform="matrix(1 0 0 1 94.6777 155.2156)" class="st0 st1 st2">NEW ZEALAND</text>
<g>
	<g>
		<path id="SVGID_1_" class="st3" d="M184.5,50.4c0,0,9.1,76.1-49,88.5c-58-12.4-49-88.5-49-88.5S119.4,19.8,175,9
			C175,9,182.4,26.8,184.5,50.4z"/>
	</g>
	<g>
		<g>
			<g>
				<g>
					<defs>
						<path id="SVGID_2_" d="M184.5,50.4c0,0,9.1,76.1-49,88.5c-58-12.4-49-88.5-49-88.5S119.4,19.8,175,9
							C175,9,182.4,26.8,184.5,50.4z"/>
					</defs>
					<clipPath id="SVGID_3_">
						<use xlink:href="#SVGID_2_"  style="overflow:visible;"/>
					</clipPath>
					<g class="st4">
						<polygon class="st5" points="177.2,50.3 177.8,49.9 182.3,46.6 176.8,46.6 176,46.6 175.7,45.8 174.1,40.5 172.4,45.8 
							172.1,46.6 171.3,46.6 165.9,46.6 170.3,49.9 170.9,50.3 170.7,51.1 169,56.4 173.4,53.2 174.1,52.7 174.7,53.2 179.1,56.4 
							177.4,51.1 						"/>
						<polygon class="st5" points="152.8,74.7 153.5,74.2 157.9,70.9 152.4,70.9 151.6,70.9 151.4,70.2 149.7,64.8 148,70.2 
							147.8,70.9 147,70.9 141.5,70.9 145.9,74.2 146.6,74.7 146.3,75.4 144.7,80.8 149.1,77.5 149.7,77 150.4,77.5 154.8,80.8 
							153.1,75.4 						"/>
						<polygon class="st5" points="177,113.3 177.6,112.8 182.1,109.5 176.6,109.5 175.8,109.5 175.5,108.7 173.9,103.4 
							172.2,108.7 171.9,109.5 171.1,109.5 165.7,109.5 170.1,112.8 170.7,113.3 170.5,114 168.8,119.4 173.3,116.1 173.9,115.6 
							174.6,116.1 178.9,119.3 177.2,114 						"/>
						<g>
							<polygon class="st6" points="58.8,9.5 58.8,25.7 26.8,9.5 12.7,9.5 49.8,28.2 41.5,28.2 12.7,13.7 12.7,16.4 36.1,28.2 
								12.7,28.2 12.7,31.9 62.5,31.9 62.5,9.5 							"/>
							<polygon class="st6" points="12.7,42.6 12.7,46.3 36.1,46.3 12.7,58.2 12.7,65 49.8,46.3 58.1,46.3 20.9,65 26.8,65 
								58.8,48.8 58.8,65 62.5,65 62.5,42.6 							"/>
							<polygon class="st0" points="123,42.6 73.1,42.6 73.1,65 76.8,65 76.8,48.8 108.8,65 123,65 85.8,46.3 94.1,46.3 123,60.8 
								123,58.2 99.5,46.3 123,46.3 							"/>
							<polygon class="st6" points="123,9.5 85.8,28.2 77.5,28.2 114.7,9.5 108.8,9.5 76.8,25.7 76.8,9.5 73.1,9.5 73.1,31.9 
								123,31.9 123,28.2 99.5,28.2 123,16.4 							"/>
							<polygon class="st7" points="49.8,28.2 12.7,9.5 12.7,13.7 41.5,28.2 							"/>
							<polygon class="st8" points="85.8,46.3 123,65 123,60.8 94.1,46.3 							"/>
							<polygon class="st7" points="85.8,28.2 123,9.5 114.7,9.5 77.5,28.2 							"/>
							<polygon class="st7" points="49.8,46.3 12.7,65 20.9,65 58.1,46.3 							"/>
							<polygon class="st8" points="73.1,31.9 73.1,9.5 62.5,9.5 62.5,31.9 12.7,31.9 12.7,42.6 62.5,42.6 62.5,65 73.1,65 
								73.1,42.6 123,42.6 123,31.9 							"/>
						</g>
					</g>
				</g>
			</g>
		</g>
	</g>
	<g>
		<path class="st9" d="M184.5,50.4c0,0,9.1,76.1-49,88.5c-58-12.4-49-88.5-49-88.5S119.4,19.8,175,9C175,9,182.4,26.8,184.5,50.4z"
			/>
	</g>
</g>
<image style="overflow:visible;enable-background:new    ;" width="640" height="649" xlink:href="img/steve-hanson-nz.png"  transform="matrix(0.1823 0 0 0.1823 223.0634 14.8491)">
</image>
</svg>
