<?xml version="1.0" encoding="utf-8"?>
<!-- Generator: Adobe Illustrator 23.0.5, SVG Export Plug-In . SVG Version: 6.00 Build 0)  -->
<svg version="1.1" id="Layer_1" xmlns="http://www.w3.org/2000/svg" xmlns:xlink="http://www.w3.org/1999/xlink" x="0px" y="0px"
	 viewBox="0 0 425 179" style="enable-background:new 0 0 425 179;" xml:space="preserve">
<style type="text/css">
	.st0{fill:#FFFFFF;}
	.st1{font-family:'Arial-BoldMT';}
	.st2{font-size:12px;}
	.st3{fill:#24B865;}
	.st4{clip-path:url(#SVGID_3_);}
	.st5{fill-rule:evenodd;clip-rule:evenodd;fill:#FFFFFF;}
	.st6{fill-rule:evenodd;clip-rule:evenodd;fill:#EC1C24;}
	.st7{opacity:0.2;fill-rule:evenodd;clip-rule:evenodd;fill:#FFFFFF;enable-background:new    ;}
	.st8{fill:none;stroke:#FFFFFF;stroke-width:1.25;stroke-linecap:round;stroke-linejoin:round;stroke-miterlimit:10;}
</style>
<text transform="matrix(1 0 0 1 246.7026 155.2148)" class="st0 st1 st2">COACH:</text>
<text transform="matrix(1 0 0 1 216.2026 169.6148)" class="st0 st1 st2">MICHAEL CHEIKA (AU)</text>
<text transform="matrix(1 0 0 1 97.2119 155.2156)" class="st0 st1 st2">AUSTRALIA</text>
<g>
	<g>
		<path id="SVGID_1_" class="st3" d="M178.5,50.4c0,0,9.1,76.1-49,88.5c-58-12.4-49-88.5-49-88.5S113.4,19.8,169,9
			C169,9,176.4,26.8,178.5,50.4z"/>
	</g>
	<g>
		<g>
			<defs>
				<path id="SVGID_2_" d="M178.5,50.4c0,0,9.1,76.1-49,88.5c-58-12.4-49-88.5-49-88.5S113.4,19.8,169,9
					C169,9,176.4,26.8,178.5,50.4z"/>
			</defs>
			<clipPath id="SVGID_3_">
				<use xlink:href="#SVGID_2_"  style="overflow:visible;"/>
			</clipPath>
			<g class="st4">
				<g>
					<polygon class="st5" points="75,5.6 75,23.1 40.3,5.6 25,5.6 65.3,25.9 56.3,25.9 25,10.1 25,13 50.4,25.9 25,25.9 25,29.9 
						79,29.9 79,5.6 					"/>
					<polygon class="st5" points="25,41.5 25,45.5 50.4,45.5 25,58.4 25,65.8 65.3,45.5 74.3,45.5 33.9,65.8 40.3,65.8 75,48.3 
						75,65.8 79,65.8 79,41.5 					"/>
					<polygon class="st0" points="144.7,41.5 90.6,41.5 90.6,65.8 94.6,65.8 94.6,48.3 129.3,65.8 144.7,65.8 104.4,45.5 
						113.4,45.5 144.7,61.3 144.7,58.4 119.2,45.5 144.7,45.5 					"/>
					<polygon class="st5" points="144.7,5.6 104.4,25.9 95.4,25.9 135.7,5.6 129.4,5.6 94.6,23.1 94.6,5.6 90.6,5.6 90.6,29.9 
						144.7,29.9 144.7,25.9 119.3,25.9 144.7,13 					"/>
					<polygon class="st6" points="65.3,25.9 25,5.6 25,10.1 56.3,25.9 					"/>
					<polygon class="st7" points="104.4,45.5 144.7,65.8 144.7,61.3 113.4,45.5 					"/>
					<polygon class="st6" points="104.4,25.9 144.7,5.6 135.7,5.6 95.4,25.9 					"/>
					<polygon class="st6" points="65.3,45.5 25,65.8 33.9,65.8 74.3,45.5 					"/>
					<polygon class="st7" points="90.6,29.9 90.6,5.6 79,5.6 79,29.9 25,29.9 25,41.5 79,41.5 79,65.8 90.6,65.8 90.6,41.5 
						144.7,41.5 144.7,29.9 					"/>
				</g>
				<polygon class="st0" points="89,98.2 99.5,94.5 93.4,104 102.9,109.9 91.7,111 93,122.1 85.1,114.1 77.2,122 78.6,110.8 
					67.5,109.6 77.1,103.7 71.2,94.3 81.7,98.1 85.4,87.6 				"/>
				<polygon class="st0" points="175.9,65 181,63.2 178.1,67.8 182.6,70.7 177.2,71.2 177.8,76.6 174,72.7 170.2,76.5 170.9,71.1 
					165.5,70.5 170.1,67.7 167.3,63.1 172.4,64.9 174.2,59.8 				"/>
			</g>
		</g>
	</g>
	<g>
		<path class="st8" d="M178.5,50.4c0,0,9.1,76.1-49,88.5c-58-12.4-49-88.5-49-88.5S113.4,19.8,169,9C169,9,176.4,26.8,178.5,50.4z"
			/>
	</g>
</g>
<image style="overflow:visible;enable-background:new    ;" width="640" height="649" xlink:href="img/michael-cheika-aus.png"  transform="matrix(0.1822 0 0 0.1822 217.0645 14.8481)">
</image>
</svg>
