<?xml version="1.0" encoding="utf-8"?>
<!-- Generator: Adobe Illustrator 23.0.5, SVG Export Plug-In . SVG Version: 6.00 Build 0)  -->
<svg version="1.1" id="Layer_1" xmlns="http://www.w3.org/2000/svg" xmlns:xlink="http://www.w3.org/1999/xlink" x="0px" y="0px"
	 viewBox="0 0 425 179" style="enable-background:new 0 0 425 179;" xml:space="preserve">
<style type="text/css">
	.st0{fill:#FFFFFF;}
	.st1{font-family:'Arial-BoldMT';}
	.st2{font-size:12px;}
	.st3{clip-path:url(#SVGID_3_);}
	.st4{fill:#24B865;}
	.st5{fill:#24B865;stroke:#FFFFFF;stroke-width:0.75;stroke-linecap:round;stroke-linejoin:round;}
	.st6{fill:#FFFFFF;stroke:#FFFFFF;stroke-width:0.3;stroke-linecap:round;stroke-linejoin:round;}
	.st7{fill:none;stroke:#FFFFFF;stroke-width:0.3;stroke-linecap:round;stroke-linejoin:round;}
	.st8{fill:none;stroke:#FFFFFF;stroke-width:1.25;stroke-linecap:round;stroke-linejoin:round;stroke-miterlimit:10;}
</style>
<text transform="matrix(1 0 0 1 248.7026 155.2148)" class="st0 st1 st2">COACH:</text>
<text transform="matrix(1 0 0 1 218.2026 169.6148)" class="st0 st1 st2">WARREN GATLAND (NZ)</text>
<text transform="matrix(1 0 0 1 111.9033 155.2156)" class="st0 st1 st2">WALES</text>
<g>
	<g>
		<path id="SVGID_1_" class="st0" d="M180.5,50.4c0,0,9.1,76.1-49,88.5c-58-12.4-49-88.5-49-88.5S115.4,19.8,171,9
			C171,9,178.4,26.8,180.5,50.4z"/>
	</g>
	<g>
		<g>
			<defs>
				<path id="SVGID_2_" d="M180.5,50.4c0,0,9.1,76.1-49,88.5c-58-12.4-49-88.5-49-88.5S115.4,19.8,171,9
					C171,9,178.4,26.8,180.5,50.4z"/>
			</defs>
			<clipPath id="SVGID_3_">
				<use xlink:href="#SVGID_2_"  style="overflow:visible;"/>
			</clipPath>
			<g class="st3">
				<rect x="67.8" y="79.1" class="st4" width="190.6" height="64.7"/>
				<path class="st5" d="M221.9,44.4c-1,6.8,0,16.6,1.7,19.8c-2-0.7-4.3-2.5-5.4-4.7c-0.8,2.5-1.6,4.9-2.4,7.4
					c5,10.2-8.1,18.3-19,18.9c6.7,3.6,15.4,8.1,15.4,10.5c-2.6,1-4.2-1.8-6.3-2.7c2.3,5.9,0.9,10.3-0.3,16.1c-1.1,1.4,0,2.3,0.5,3.4
					c1.1,0.4,2.1,0.8,3.2,1.2c0.2,0.1,0.3,0.3,0.5,0.4c0,0,2.2,0.1,2.8,3.2c-1.5-1.8-3.5-1.2-3.5-1.2c-0.3,0.2-0.5,0.3-0.8,0.5
					c-0.6-0.3-1.2-0.7-1.8-1.1c-2-1.3-4-1.2-6.1-0.3c-1.1,0.7-2.2,0.6-3.2,0.1c-1.2-1.3-3.8-0.2-3.9-0.2l-2.8,1.8l-0.7-0.1
					c0,0-1.8-0.1-4.1,1.4c0.6-3.1,2.8-3,2.8-3c-0.2-0.6,0.3-0.5,0.4-0.8c0.8-0.8,2.3-0.7,3.5-1c-2.2-0.1-4.4-0.2-6.6-0.3
					c0-0.1,0.1-0.2,0.1-0.3c-1.4-0.1-2.6-0.2-3.4,1.2c-0.1-2.3,1.8-2.7,3-3.2c0.6-0.8,1.7-0.7,2.9-0.6c0,0,6.3,2.3,5.8,2.2
					c-0.5-0.2-7.4-3.1-7.4-3.1c-0.3-0.5,0.1-0.8,0.1-0.9c0,0-1.9-1.2-3.2,0.1c0.2-2.7,3.5-2,3.5-2c0.2-0.9,1-0.8,1.5-0.4
					c0.8,0.8,1.7,1.6,2.5,2.4c0.8,0.5,1.6,1,2.3,1.5c2.2,1,4.5,0.6,6.4-2.5c-0.7-1.6-0.4-2.3,1.1-3.2c-0.4-1.1-0.2-2.2,0.2-3.2
					c-0.6-1-1-3.6-0.4-4.3c-1.5-0.5-2-2-2.1-2c-1.3,0.3-2.5-0.2-3-0.7c-2.1,0.9-3.8,0.4-5.2-0.8c-2.4,0.8-4.6,0.2-5.7-0.8
					c-1.8,0.4-4.7-0.9-5.2-2.3c-1.1,0-2.1-1.2-3.3-1.1c-0.9,1.5-1.2,1.4-2.6,2.6c-1.4,1.5-0.9,4,0.2,5.2c1.8,0.7,3.6,1.4,5.3,2
					c4.1,0.2,5,2.6,5,4.8c-1.5-0.5-1.6-0.7-2.3-0.8c-1.1-0.4-2.1-0.8-3.2-1.1c-3.3,5.3-7.9,9-14.6,10.7c1.3,0.6,2.5,0.4,3.8,0.6
					c0.5,0.3,0.9,0.5,1.4,0.8c2,0.4,3.4,1.1,3.3,2.9c-1.3-1.5-2.6-1.4-3.6-0.7c-2.1,0.9-3.3-1.1-5-1.6c-1.4-1-2.8-0.6-4,0.1
					c-1.4-0.9-3-0.4-4.6-0.3c-2,0.2-4.2,0.7-5.2,1.8c-0.7,0.5-0.9-0.3-1-0.2c-2.3-0.8-3.3,1.3-3.3,1.3c-0.5-2.3,0.6-2.8,1.9-3.2
					c-0.9-0.5-1.7-1-2.6-1.5c-0.1-0.3-0.2-0.3,0.2-0.5c-1-0.6-2-0.1-3.1,0.9c0.1-2.1,2.7-3.4,3.8-2.7c0.8-0.6,2.2-0.7,3.3,0.2
					c1.2,0.9,3,1,4.2,0.7c-0.5-1.4-2.2-2.3-3.1-2.3c-1.3-0.3-2.8-0.8-2.4-1.6c-0.8-1.2-2-0.8-3.3,0.1c0.5-2.6,3.2-2.4,4-1.8
					c0.3-0.8,1.1-1,1.8-0.2c1.1,0.3,1.3,1.1,1.9,1.6c1.2,1.3,3.2,1.9,4.8,2.2c1.5-0.8,3.2-1,5-1c0.3-1.5,1.3-1.8,2.6-1.8
					c-0.1-1.3,0.6-1.9,1.8-2.4c0,0-1.9-0.2-2.1-1.4c-3.3,0-5.4-0.5-5.7-2.6c-3-0.9-4.8-3.2-3.6-5.6c-1.5,0.5-2.4,0.5-3.7,0
					c-2.1,1.8-5.3,4-7.2,2.8c-0.9,1-3.1,2.1-3.1,2.1c-0.3,2.3-2,5.1-2,5.1c-0.9-2.2-2.6-4.6-2.4-6.8c-3,3.9-4.7,5-7.1,7.5
					c-1.9,1.9-2.9,4.2-3.6,6.8c1.4,0.8,3.2,0.7,4.9,1c0.4,0.6,0.3,0.3,0.5,0.5c1.7,0,3,1,3,2.8c-1.6-1.6-3.1-0.6-3.1-0.6
					c-1.3,1.1-2.9,0.6-4.4,0c-1.3-1.4-3.3-2.2-4.9-1c-2,1.6-2.9-0.8-5.9,0.9c-2.2,2-5.2,2.2-6,1c0,0-1.5-0.6-3.7,1.7
					c0.6-3.7,2.9-3.3,2.9-3.3c0-0.4-0.1-0.8-0.1-1.2c-0.3-0.1-0.6-0.2-0.9-0.3c-1.5-0.7-3.5-0.5-4.3,0.2c0.6-2.4,2.8-2.4,4.5-2.2
					c0.3-0.3,0.6-0.7,0.9-1c-0.7-0.3-0.5-0.7-0.4-1.2c-0.9-0.9-1.6-1.1-2.8-0.2c0.4-2.3,2.6-2.2,4.2-1.2c0.8-0.5,2.7,0.5,3.9,1.2
					c3.6,1.2,5.9,1.4,9.5-3.3c0-2.2,0.2-3.1,2.1-4.4c-0.7-1.3-0.3-2.7,1.5-3.4c-0.7-0.6-0.2-1.5,0.3-2.5c-2.7-0.1-5.7,0.2-7.8,0.9
					c-0.7,2.1-1.6,4.3-3.1,5.7c0-5.5-3.1-9.4-7-13.6c-4.4-2.9-6.4-8.7-6.8-10.6c-0.8,2.1-1.4,2.5-1.4,2.5c-1,1.1-0.3,3.5-2.3,3.6
					c-1.9,2.3-4.2,1-4.2,1c2.2-0.3,2.5-1.2,2.9-2.6c-1.4-0.3-0.2-1.5,0.5-1.9c0.4-0.1,1.5-2.8,2.2-2.7c0.3-2.7,0.6-5.3,0.9-8
					c-1.7-0.7-2.9-1.9-2.8-3.8c-0.6-0.8-1.1-2-0.2-2.5c-0.4-1-0.8-2.1-2.3-2.5c3.3-0.6,3.8,1.4,4.6,1.6c1,0.6,1.7,4,2.8,5.7
					c-0.9-2.9-0.4-4.9,0.5-7.4c0-1.4-0.6-2.7-1.9-3.5c2.9-0.1,4,2.9,4.1,3c1.8,2.3-0.6,4,0.2,5c0.6-0.4,0.8-1.4,1.7-1.3
					c0.7-0.8,1.2-1.6,1.2-3.3c1.7,1,1.3,2.5,0.8,3.9c0.1,2.2-0.2,2.7-1.6,3.5s-1.7,1.5-1.5,2.6c1.7,1.9,2.1,7.6,2.1,7.6
					c1.7,0.5,2.4,2,2.3,3.3c1.7-0.2,3.2,1.1,3.4,2.3c1-0.9,2.3-0.1,3.3,0.9c0.3-0.5,1.1-0.7,1.8-0.5c0-0.9,0.5-1.5,1.3-2.2
					c-2-1.5-2.5-5.3-0.3-7.3c-0.4-2.8,0.4-5.4,1.8-5.7c-0.5-3,1.4-4,2.1-4.7c-0.5-1.4,1.1-4,1.9-4c-0.9-1.4,0.7-4.1,2-4.3l-0.9-2
					c0,0-4.1,0.6-4.9,4.4c-0.5-0.8-1-2-1-2s-1.6,4.4-1.7,4.3c-1.4-0.9-0.8-3-0.8-3c-1-1.1-0.8-2.6-1.3-3.9
					c-3.9-0.2-7.7-0.3-11.6-0.5l1.3,2.4c-1.4,0-8.1-5.7-9.4-10.6c3.5,2.7,7.1,3.4,11,4.2c-1,0.5-2.1,1-3.1,1.5
					c10.7,0.9,21.8-1.1,21.7-1.1c-1.2-2.5-5.1-2.5-5.1-2.5c0,0.6,0,1.1,0,1.7c-0.4-0.3-0.7-0.5-1.1-0.8c0,0.4,0,0.9-0.1,1.3
					c-0.3-0.2-0.5-0.4-0.8-0.6c-0.1,0.4-0.2,0.7-0.3,1.1c-0.3-0.2-0.5-0.4-0.8-0.6c-0.1,0.3-0.2,0.6-0.4,1c-0.3-0.2-0.6-0.5-0.9-0.7
					c0,0-0.8,0-0.8-0.1c-0.5-2.5-2.9-2.6-2.9-2.6c-2.8-0.4-5,0.2-7.5,0.3c3.7-4.6,8.7-4.2,13.6-4.7c0.3-2.1,2.1-2.6,4.3-2.9l9.9,0.5
					c1.3-1.7,5.2-2.4,5.2-2.4c1.4-0.7,2.9-0.4,4.2-2.1c-0.3,2.3-0.3,2.8-0.5,4.2c0.4,0,0.9,0.1,1.3,0.2c-1.1,0.7-2.7,1.8-3.8,2.5
					c-1.3,1.9-1,2-0.5,3c0.4,0.7,0.8,1.4,1.2,2c2,0.6,3.4,1.4,3.9,2.7c-2.1-0.3-3.7,0.1-3.6,1.1c0,0.7,1.7,1,2.3,1.4
					c1.2,1.1,1.6,2.2,1.7,3.6c-1.6-0.1-3.6-2.4-4.7-0.3c-0.5,1.1,0.1,2.5,1.4,3c2.5,0.7,2.7,4.1,2.7,4.1c-0.1,0-5.5-3.6-5.2-0.2
					c-0.1,1.5,0.6,1.8,1.2,2.3c1.6,0.6,3,1.3,2.8,3c-2.3-0.8-3.5-0.2-3.7,1.2c0.3,0.9,0.6,1.8,0.9,2.6c3.2-0.7,6.4-1.3,9.5-1.9
					c1.4-1.3,2-3.4,1.9-5.6c0.2-3.4-1-6.3,3.2-10.1c9-7.5,18.1-13.3,28.2-18.9c-2.1,3.4-3.5,9.8,1.9,10.3c1.7,0,20.7-8,20.7-8
					c-6.6,4.8-14.2,11.6-5.4,14.5c-8.1,2.5-14.8,10.7-8.9,17.3c-4.2-1.2-9.7,1.5-10.7,4.6c4.8,0,9.1-0.3,13.7,1.3
					c0,0,12.7,2.5,13.5-3.1c-6.8,1.5-11.8,0.8-12-5.3c0.1-5.3,7.9-8.2,14.6-4.3c0.7-1.4,1.4-2.8,2-4.3c-2.5,0.3-4.7,0.7-7.2,0.1
					C212.7,54.6,217.5,49.8,221.9,44.4z"/>
				<path class="st6" d="M209.4,68.5c0.1,2.2-6.5,2.7-6.9,0.3C202.4,67.5,205.8,65.4,209.4,68.5z"/>
				<path class="st7" d="M219.2,53.5c0,0-0.4,5-1,6.1"/>
				<path class="st7" d="M216.8,53.7l-2.1,5.7"/>
				<path class="st7" d="M212.7,63.7c0.4,0.3,2.1,1.2,3.1,3.2"/>
				<path class="st7" d="M209.5,68.5c0,0,2,3.8,0.6,4.8"/>
				<path class="st7" d="M187.3,78.2c3-0.4,7.3,6.3,9.5,7.6"/>
				<path class="st7" d="M209.5,114.6c0,0-1.2,0.9-0.6,2.1"/>
				<path class="st7" d="M188.5,115.7c0,0,1.5,0.4,1.3,1.7"/>
				<path class="st7" d="M185.5,111.3c0,0,1.1,1.1,0.4,2.1"/>
				<path class="st7" d="M187.2,107c0,0,1.4,0.7-0.3,1.9"/>
				<path class="st7" d="M169.2,114.5c0,0-1.3,1.1-0.3,2.2"/>
				<path class="st7" d="M147.9,114.8c0,0,2.3,0.1,1.5,1.8"/>
				<path class="st7" d="M146.2,111c0,0,0.8,1.4-0.7,1.8"/>
				<path class="st7" d="M149.1,106.3c0,0,0.7,1.5-0.7,1.7"/>
				<path class="st7" d="M147.4,114.5c0,0,2.2-1.9,3.2-0.9s5.4-0.9,5.4-0.9"/>
				<line class="st7" x1="157.5" y1="109.9" x2="153.9" y2="111.8"/>
				<path class="st7" d="M162.6,108.9c0,0,2.6,2.9,4.6-0.6"/>
				<path class="st7" d="M165.2,107.1c1.8,1.4,1.1,2.3,6.7-1.5"/>
				<path class="st7" d="M166.9,104.7c0,0,4.8,0.5,5,0.9c0.6-0.6,4.9-4.1-0.4-4.6C170.6,104.6,167,104.8,166.9,104.7z"/>
				<path class="st7" d="M109.6,115.5c0,0,1.8,0.3,0.7,1.7"/>
				<path class="st7" d="M108.8,112.1c0,0,1.3,0.8-0.2,1.9"/>
				<path class="st7" d="M110.8,108.5c0,0,0.6,1.6-1.4,1.4"/>
				<path class="st7" d="M109.5,114.3c0,0,2.5-2,3.8-0.8c1.3,0.4,1.9,0.4,1.9,0.4"/>
				<path class="st7" d="M131.7,114.2c0,0-0.7,1.5-0.1,2.2"/>
				<path class="st7" d="M109.7,111c1.6-0.1,1.9,0.6,3.3,0.6c1.6,0,3.2-0.6,5.3-1.2"/>
				<path class="st7" d="M99.2,64.2c0,0,1,0.5,2-1"/>
				<path class="st7" d="M98.6,82.9c0,0,1.6,0.5,1.3,1.7"/>
				<path class="st7" d="M104.8,61.5c0,0,0,1,2-0.5"/>
				<path class="st7" d="M106.9,66c0,0-1.5,4.1,0.3,5"/>
				<path class="st7" d="M108.7,64.8c0,0,0.8,1.7,1.9,0.7"/>
				<polyline class="st7" points="107.1,54.1 105.8,52.1 107,51.7 				"/>
				<path class="st7" d="M119.6,43.8c0,0,1.2,1.5,1.3,2.4c0,0.9-0.9,1.5-0.9,1.5"/>
				<path class="st7" d="M118.7,45.7c0,0-0.3,0.9-0.4,1.5c0,0.4-1.4,1-1.4,1"/>
				<path class="st7" d="M135.3,41.2c0,0-0.2,1.2-0.8,1.9"/>
				<path class="st7" d="M123.5,44.4c0,0,2.5-0.7,3-0.1c1.3,0.1,3.6,0.6,3.6,0.6s2.2-0.3,3-0.8"/>
				<path class="st7" d="M124.8,44.2c-0.3,1,2.1,3.9,4.2,0.4"/>
				<path class="st6" d="M125.6,44.1l2.3,0.4C127.9,44.5,126.3,46.7,125.6,44.1z"/>
				<path class="st7" d="M128.7,50.6l3.1,5.9l1.5-2.2l0.8,1.5l1.3-2.2l2.2,1.4l-0.8-2.7l1.8-0.1c0,0-0.5-1.3-2.1-1.6
					c0.4-0.3,1.9-1.3,1.9-1.3s-0.8-1-2.2-1c0.4-0.5,1-1.6,1-1.6l-1.4-0.3c0,0,3.1,1,5.5-0.4"/>
				<path class="st7" d="M118.7,54.7l4.7-0.1c1.5,0,4-2.1,6.7-1.5"/>
				<path class="st7" d="M119.4,54.6l0.3-0.9l0.3,0.8l0.4,0.1l0.9-0.8l0.3,0.8h0.4l0.5-1l0.5,1l0.9-1.6l1,1.2l0.3-1.4l0.9,0.9
					l0.4-1.2l0.9,0.8l0.4-1l0.5,1"/>
				<path class="st7" d="M139.1,45.2c0,0-2.4-0.1-2.3-1.1c0.2-1.1,2.6-1.8,2.6-1.8s3.2-2,3.6-2.7"/>
				<path class="st7" d="M139.7,41.1c0,0,0.8-0.8,2.1-0.4"/>
				<path class="st7" d="M120.3,85.1c0,0-0.3,1.5,1.8,4.5c-0.6,3.4,2.6,6,3.8,6.5"/>
				<path class="st7" d="M109.5,79c-2.4,1.3,1.3,9.8,12.7,10.6"/>
				<path class="st7" d="M118.5,85.5c0,0,0.8,2.5,0.1,3.7"/>
				<path class="st7" d="M115.3,84.6c0,0-0.9,1.8-1.2,2.7"/>
				<path class="st7" d="M111.9,82.3c0,0-0.7,1.5-1.6,1.9"/>
				<path class="st7" d="M151.9,71c0,0,3-0.1,6.1-8.3c3-11.2,26.7-23.8,27.1-26.1"/>
				<path class="st7" d="M160.6,57.7c4.5-2.5,18.2-7.5,27.3-11.2"/>
				<path class="st7" d="M206.7,39.2c0,0-42.1,19.6-42.7,20.7c7.1-2.2,37.2-7.2,38-6.7c-1.8,0.4-38.3,8.8-40,10.8
					c9.1-0.3,28.2,2.9,31.2,6c-6.5-1.4-25.9-4.3-31.8-3c4.4,1,21,11.8,21,13.5c-2.5-2.4-22.5-10.6-23.3-9.9
					c4.6,2.8,11.1,13,11.1,15.5c-1.4-2.1-12.9-14.6-13.6-13.8c1.2,1.7,3.6,16.4,2.4,17.1c0-1.8-4.5-14.6-4.9-15
					c-0.9,0.2-6.6,15.7-5.5,17.1c-0.7-5.1,0.1-15.9,1.5-15.5c-2.5,0.4-10.5,10.9-9.7,12.6c0.2-2.6,0.6-4.4,5.1-13.1
					c-5,0.3-15.4,6.9-17.2,9.2c1.4-4.2,10.2-11.2,14.1-11.7"/>
				<line class="st7" x1="128.4" y1="54.8" x2="130.9" y2="54.8"/>
				<path class="st7" d="M118.4,50.2c0,0,1.7,0.6,5.2-2.1"/>
				<path class="st7" d="M129.8,82.2c-1-1.3,0.8-21.2,4.5-26.4c-1.3,9.4,3,19,4.1,19"/>
				<path class="st7" d="M129.2,56.7c0,0,1.8,1.9,3.8,1.6"/>
				<path class="st7" d="M127.2,61.1c0,0,0.9,1.5,4.2,1.8"/>
				<path class="st7" d="M125.3,65.1c0,0,2.3,2.8,5.3,2.4"/>
				<path class="st7" d="M123.2,69.9c0,0,0.6,2,6.7,2.2"/>
				<path class="st7" d="M121.5,75.6c0,0,2.8,2.5,8.1,1.7"/>
				<path class="st7" d="M121.8,82.9c0,0,3.6,2,8-0.7"/>
				<path class="st7" d="M182.7,75c0,0-2.5,2.1-0.2,5.6c-7.8-0.1-12,3.5-12.3,5.9c-9.9-0.7-8.1,2.2-11.3,3.2
					c-4.3-3.6-10.6-1.6-10.2,2c-2.9-4.1-7.3-2.1-7.9-1.1c-0.5,1-0.3-5-0.3-5s-2.9,1.3-4.9,3.7c0-1.6,0-4.2,0-5
					c-2.4,0.5-4.8,0.5-7.2,0.5"/>
				<path class="st7" d="M130.5,84.8c0,0-4.2,6.5,2.3,8.2"/>
				<path class="st7" d="M140.4,88.6c0,0-1.1,0.5-1.4,0.4c-1.3,0.3-1,3.2,0.6,3.1c0.6-0.6,1.1-1.5,1.1-1.5"/>
				<path class="st7" d="M138.1,90.4c0,0-0.5,0.6-1.2,0c-0.4-0.7-1.7,3,0.6,3.1c0.4-1.1,1.7-1.4,1.7-1.4"/>
				<path class="st7" d="M136.2,91.7c-1.8-0.1-2.9,3.9,0.7,1.4"/>
				<path class="st7" d="M134.9,92.3c0,0-2.1-1.6-2,0.6c0,1.4,0.6,1.7,0.6,1.7c0.1,1,1,2.4,1.7,1.1c0.3-1.3-0.2-1.8-0.2-1.8"/>
				<path class="st7" d="M124.1,106.4c0,0,0.3,2.8,2.3,0.7c1.3-2.8,5.6-10.7,6.5-13.4"/>
				<path class="st7" d="M130,91.4c0,0-3,0.8-1.8,4.4c1.7,1.4,3.4,1.2,3.4,1.2"/>
				<path class="st7" d="M127.8,98.5c0,0,2,0.9,2.7,0.6"/>
				<path class="st7" d="M126.3,102c0,0,0.9,1.6,2.2,1"/>
				<path class="st7" d="M142.2,89.6c0,0,0.3,4.2-1,5.7s0.3,4.6,0.3,4.6"/>
				<path class="st7" d="M145.4,89.4c0,0.1,0.8,6.7-0.9,8.6"/>
				<path class="st7" d="M151.8,88c0,0,2.5,4.8,0,7.1"/>
				<path class="st7" d="M158.9,89.5c0,0-1.4,4.2-3.4,5.7"/>
				<path class="st7" d="M165.9,89.7c0,0-6.6,11.3,5.6,11.3"/>
				<path class="st7" d="M156.9,93.7c0,0,6.8,0,7.2,1.3"/>
				<path class="st7" d="M159.1,100.7c0.1-0.1,4.9-0.5,5.7-2.3"/>
				<path class="st7" d="M164.8,103.3c0,0,2.9-1.7,2.4-2.9"/>
				<path class="st7" d="M164.6,86.4c0.3,4.4-5.1,6.9-7.2,6.5"/>
				<path class="st7" d="M164.2,89.1c0,0,3.8,1.8,7-1.1"/>
				<path class="st7" d="M170.3,86.5c0,0,1.4,2.6,3.1,2.4c2.3-0.7,3.1,0.7,3.1,0.7"/>
				<path class="st7" d="M179.8,80.7c0,0-0.2,6.4,8.8,7.7c10,2.8,14.7,1.3,15.3,12.5c-0.4,4.3-0.9,9.1-4,7.2"/>
				<path class="st7" d="M201,104.9c0,0,1.5,1.2,2.5-0.4"/>
				<path class="st7" d="M201.2,101.6c0,0,1.8,0.3,2.7-1.4"/>
				<path class="st7" d="M200.7,97.3c0,0,2,0.5,2.6-0.8"/>
				<path class="st7" d="M200.8,92.1c0,0-1.5,2.9-2,3.2"/>
				<path class="st7" d="M196.9,90.2c0,0,0.1,3.1-1.2,4.4"/>
				<path class="st7" d="M192.7,89.5c0,0-0.1,2.6-2.2,4.4"/>
				<path class="st7" d="M184.8,93.1c0,0,3.4-3.8,2.6-4.9"/>
				<path class="st7" d="M183.6,86.7c0,0-0.4,3.6-4,4.1"/>
				<path class="st7" d="M129.5,79.7c0,0,6.9-4.2,7.3-7.2"/>
				<path class="st7" d="M129.7,76.1c0,0,4.3-1.1,6.1-5.9"/>
				<path class="st7" d="M129.9,73.4c0.4,0.2,5.1-3.3,5.2-5.8"/>
				<path class="st7" d="M130.1,70.4c1.4-0.4,3.9-3.5,4.4-5.1"/>
				<path class="st7" d="M130.8,67c0,0,2-1.4,3.5-3.5"/>
				<path class="st7" d="M131.5,63.1c0,1.1,1.8-0.4,2.5-1.4"/>
				<line class="st7" x1="135.4" y1="75.1" x2="136.3" y2="76.2"/>
				<line class="st7" x1="133.7" y1="76.8" x2="134.2" y2="77.6"/>
				<path class="st7" d="M131.7,78.4l0.7,1"/>
				<path class="st7" d="M130.6,79c0,0,0,1.4,0.7,1.4"/>
				<path class="st7" d="M130.9,75.6c0,0,0.8,2.6,1.4,2.1"/>
				<path class="st7" d="M132.8,74.4c0,0.1,0.8,2.4,0.8,2.4"/>
				<line class="st7" x1="134.5" y1="72.9" x2="135.5" y2="74.9"/>
				<path class="st7" d="M133.3,70.9c0,0,1.1,1.6,1.4,1.4"/>
				<path class="st7" d="M131.8,72.3c0,0,0.6,2.3,1.1,2.1"/>
				<line class="st7" x1="129.8" y1="74.1" x2="130.9" y2="75.7"/>
				<path class="st7" d="M131.4,69.6c0,0,0.4,2.4,0.7,2.3"/>
				<path class="st7" d="M132.8,68.2c0,0.1,1.1,2.1,1.1,2.1"/>
				<path class="st7" d="M130.6,67.9l1.2,1.3"/>
				<path class="st7" d="M132.3,65.9l1,1.6"/>
				<path class="st7" d="M132.8,63.1c0,0,0,1.8,0.4,1.8"/>
				<line class="st7" x1="131.9" y1="61.7" x2="132.8" y2="63.1"/>
			</g>
		</g>
	</g>
	<g>
		<path class="st8" d="M180.5,50.4c0,0,9.1,76.1-49,88.5c-58-12.4-49-88.5-49-88.5S115.4,19.8,171,9C171,9,178.4,26.8,180.5,50.4z"
			/>
	</g>
</g>
<image style="overflow:visible;enable-background:new    ;" width="640" height="649" xlink:href="img/warren-gatland-wal.png"  transform="matrix(0.1823 0 0 0.1823 219.0634 14.8491)">
</image>
</svg>
