<?xml version="1.0" encoding="utf-8"?>
<!-- Generator: Adobe Illustrator 23.0.5, SVG Export Plug-In . SVG Version: 6.00 Build 0)  -->
<svg version="1.1" id="Layer_1" xmlns="http://www.w3.org/2000/svg" xmlns:xlink="http://www.w3.org/1999/xlink" x="0px" y="0px"
	 viewBox="0 0 425 179" style="enable-background:new 0 0 425 179;" xml:space="preserve">
<style type="text/css">
	.st0{fill:#FFFFFF;}
	.st1{font-family:'Arial-BoldMT';}
	.st2{font-size:12px;}
	.st3{fill:#24B865;}
	.st4{clip-path:url(#SVGID_3_);}
	.st5{fill-rule:evenodd;clip-rule:evenodd;fill:#FFFFFF;}
	
		.st6{fill-rule:evenodd;clip-rule:evenodd;fill:#FFFFFF;stroke:#FFFFFF;stroke-width:2;stroke-linecap:round;stroke-linejoin:round;stroke-miterlimit:10;}
	
		.st7{fill-rule:evenodd;clip-rule:evenodd;fill:#24B865;stroke:#FFFFFF;stroke-width:2;stroke-linecap:round;stroke-linejoin:round;stroke-miterlimit:10;}
	.st8{fill:none;stroke:#FFFFFF;stroke-width:1.25;stroke-linecap:round;stroke-linejoin:round;stroke-miterlimit:10;}
</style>
<text transform="matrix(1 0 0 1 245.7026 155.2148)" class="st0 st1 st2">COACH:</text>
<text transform="matrix(1 0 0 1 215.2026 169.6148)" class="st0 st1 st2">RASSIE ERASMUS (SA)</text>
<text transform="matrix(1 0 0 1 86.4092 155.2156)" class="st0 st1 st2">SOUTH AFRICA</text>
<g>
	<g>
		<path id="SVGID_1_" class="st3" d="M177.5,50.4c0,0,9.1,76.1-49,88.5c-58-12.4-49-88.5-49-88.5S112.4,19.8,168,9
			C168,9,175.4,26.8,177.5,50.4z"/>
	</g>
	<g>
		<g>
			<defs>
				<path id="SVGID_2_" d="M177.5,50.4c0,0,9.1,76.1-49,88.5c-58-12.4-49-88.5-49-88.5S112.4,19.8,168,9
					C168,9,175.4,26.8,177.5,50.4z"/>
			</defs>
			<clipPath id="SVGID_3_">
				<use xlink:href="#SVGID_2_"  style="overflow:visible;"/>
			</clipPath>
			<g class="st4">
				<polygon class="st5" points="259.6,59.1 158.3,59.1 80.9,7.4 259.5,7.5 				"/>
				<polygon class="st6" points="129.2,72.8 47.5,18.3 47.5,127.4 				"/>
				<polygon class="st7" points="113.3,72.8 47.5,28.9 47.5,116.8 				"/>
				<polygon class="st6" points="259.6,86.6 158.3,86.6 80.9,138.3 259.5,138.3 				"/>
				<polygon class="st7" points="259.5,94.7 162,94.7 93,140.6 255.8,140.6 				"/>
				<polygon class="st7" points="259.5,51 162,51 96.7,7.5 259.5,7.5 				"/>
			</g>
		</g>
	</g>
	<g>
		<path class="st8" d="M177.5,50.4c0,0,9.1,76.1-49,88.5c-58-12.4-49-88.5-49-88.5S112.4,19.8,168,9C168,9,175.4,26.8,177.5,50.4z"
			/>
	</g>
</g>
<image style="overflow:visible;enable-background:new    ;" width="640" height="649" xlink:href="img/rassie-erasmus-rsa.png"  transform="matrix(0.1823 0 0 0.1823 216.0634 14.8491)">
</image>
</svg>
