<?xml version="1.0" encoding="utf-8"?>
<!-- Generator: Adobe Illustrator 23.0.5, SVG Export Plug-In . SVG Version: 6.00 Build 0)  -->
<svg version="1.1" id="Layer_1" xmlns="http://www.w3.org/2000/svg" xmlns:xlink="http://www.w3.org/1999/xlink" x="0px" y="0px"
	 viewBox="0 0 425 179" style="enable-background:new 0 0 425 179;" xml:space="preserve">
<style type="text/css">
	.st0{fill:#FFFFFF;}
	.st1{font-family:'Arial-BoldMT';}
	.st2{font-size:12px;}
	.st3{fill:#24B865;}
	.st4{clip-path:url(#SVGID_3_);}
	.st5{fill:none;stroke:#FFFFFF;stroke-width:0.75;stroke-linecap:round;stroke-linejoin:round;stroke-miterlimit:10;}
	.st6{clip-path:url(#SVGID_5_);fill:none;}
	.st7{fill:#FFFFFF;stroke:#24B865;stroke-width:0.3;stroke-linecap:round;stroke-linejoin:round;}
	.st8{clip-path:url(#SVGID_7_);fill:none;}
	.st9{fill:#FFFFFF;stroke:#24B865;stroke-width:0.3;stroke-linecap:round;}
	.st10{clip-path:url(#SVGID_9_);fill:none;}
	.st11{fill:none;stroke:#FFFFFF;stroke-width:0.5;stroke-miterlimit:10;}
	.st12{fill:#FFFFFF;stroke:#FFFFFF;stroke-width:0.5;stroke-linecap:round;stroke-linejoin:round;}
	
		.st13{fill-rule:evenodd;clip-rule:evenodd;fill:#24B865;stroke:#FFFFFF;stroke-width:0.3;stroke-linecap:round;stroke-linejoin:round;}
	.st14{fill:none;stroke:#FFFFFF;stroke-width:0.3;stroke-linecap:round;stroke-linejoin:round;}
	.st15{fill:#CC0000;}
	.st16{fill:none;stroke:#FFFFFF;stroke-width:0.75;stroke-linecap:round;stroke-linejoin:round;}
	.st17{fill:#FFFFFF;stroke:#FFFFFF;stroke-width:0.5;stroke-linecap:round;stroke-linejoin:round;stroke-miterlimit:10;}
	.st18{fill:none;stroke:#FFFFFF;stroke-width:0.5;stroke-linecap:round;stroke-linejoin:round;stroke-miterlimit:10;}
	.st19{fill:none;stroke:#FFFFFF;stroke-width:0.2;}
	.st20{fill:#FFFFFF;stroke:#FFFFFF;stroke-width:0.75;stroke-linecap:round;stroke-linejoin:round;}
	.st21{fill-rule:evenodd;clip-rule:evenodd;fill:#24B865;}
	.st22{fill:none;stroke:#646464;stroke-width:1.5041;}
	.st23{fill:#24B865;stroke:#FFFFFF;stroke-width:0.75;stroke-linecap:round;stroke-linejoin:round;}
	.st24{fill:none;stroke:#FFFFFF;stroke-width:1.25;stroke-linecap:round;stroke-linejoin:round;stroke-miterlimit:10;}
</style>
<text transform="matrix(1 0 0 1 250.7026 155.2148)" class="st0 st1 st2">COACH:</text>
<text transform="matrix(1 0 0 1 220.2026 169.6148)" class="st0 st1 st2">JOE SCHMIDT (NZ)</text>
<text transform="matrix(1 0 0 1 109.125 155.2156)" class="st0 st1 st2">IRELAND</text>
<g>
	<g>
		<path id="SVGID_1_" class="st3" d="M182.5,50.4c0,0,9.1,76.1-49,88.5c-58-12.4-49-88.5-49-88.5S117.4,19.8,173,9
			C173,9,180.4,26.8,182.5,50.4z"/>
	</g>
	<g>
		<g>
			<defs>
				<path id="SVGID_2_" d="M182.5,50.4c0,0,9.1,76.1-49,88.5c-58-12.4-49-88.5-49-88.5S117.4,19.8,173,9
					C173,9,180.4,26.8,182.5,50.4z"/>
			</defs>
			<clipPath id="SVGID_3_">
				<use xlink:href="#SVGID_2_"  style="overflow:visible;"/>
			</clipPath>
			<g class="st4">
				<g id="g78822" transform="translate(-544.934,251.396)">
					<path id="path7014-6-7-28-3-2-4-5-1" class="st5" d="M635.3-161.4c0.1,3.3,0.2,5.9,1.9,7.9c2,2.4,5.4,4.2,9.7,5.9
						c4.3-1.7,7.6-3.5,9.7-5.9c1.7-2,1.9-4.6,1.9-7.9c0.1-3.4,0.1-7.8,0-11.2c-3.6,2.7-9.5,1.8-11.6,0.1c-2.9,2-8.2,2.7-11.5-0.1
						C635.2-169.2,635.2-164.8,635.3-161.4L635.3-161.4z"/>
					<g id="g84776-5_1_" transform="matrix(0.156684,0,0,0.189706,-492.101,245.296)">
						<g>
							<g>
								<g>
									<defs>
										<polygon id="SVGID_4_" points="7281.3,-2152.7 7274.6,-2177.7 7287.4,-2165.2 7290.1,-2181.3 7296.2,-2166.7 
											7301.7,-2183.5 7307.1,-2166.7 7313.2,-2181.3 7315.9,-2165.2 7328.8,-2177.7 7322,-2152.7 7322,-2140.2 7281.3,-2140.2 
																					"/>
									</defs>
									<clipPath id="SVGID_5_">
										<use xlink:href="#SVGID_4_"  style="overflow:visible;"/>
									</clipPath>
									<ellipse id="circle7886-1_1_" class="st6" cx="7301.7" cy="-2199.9" rx="7.5" ry="9.9"/>
								</g>
							</g>
						</g>
						<path id="path3929-42-2-1_1_" class="st0" d="M7271.3-2173.7c3,5.8,6,11.6,8.9,17.4h44c3.3-5.8,5.8-11.6,9.1-17.4l-11.2,9.7
							l-1-15.4l-11.9,14.2l-6.2-15.9l-6.8,15.9l-10.9-14.2l-2.1,15.4L7271.3-2173.7z"/>
						<path id="path9241-03_1_" class="st0" d="M7302.3-2151.9c-7.9,0-15,1.7-20,4.2c0.4-0.3-0.2-3.2-0.7-5.4
							c-0.6-2.7-1.5-3.1-1.5-3.1c5.5-2.7,13.8-4.6,22.3-4.6c8.6,0,16.8,1.9,22.4,4.6c0,0-1.1,0.6-1.7,3.3c-0.5,2.2-0.9,5-0.5,5.3
							C7317.4-2150.2,7310.2-2151.8,7302.3-2151.9"/>
						<path id="path9243-6_1_" class="st3" d="M7302.3-2160.1c-8.6,0-16.3,1.7-21.8,4.4c-0.4,0.2-0.8-0.1-0.9-0.6
							c-0.1-0.6,0.1-1.2,0.4-1.4c5.6-2.8,13.5-4.6,22.2-4.6c8.8,0,16.7,1.8,22.3,4.6c0.4,0.2,0.6,0.8,0.4,1.4
							c-0.1,0.6-0.5,0.8-0.9,0.6C7318.6-2158.4,7310.9-2160.1,7302.3-2160.1"/>
						<path id="path9371-96_1_" class="st0" d="M7302.4-2141.2c-7.8,0-14.8-1.5-19.8-4c-0.4-0.2-0.6-0.7-0.5-1.3
							c0-0.6,0.2-1.1,0.5-1.2c5-2.5,12-4,19.8-4s14.8,1.5,19.8,4c0.4,0.2,0.5,0.7,0.5,1.2c0,0.6-0.2,1.1-0.5,1.3
							C7317.2-2142.8,7310.2-2141.3,7302.4-2141.2"/>
						<path id="path9373-9_1_" class="st3" d="M7302.3-2142.9c-7.1,0-13.4-1.4-18.3-3.4c4.9-2.1,11.2-3.3,18.3-3.4
							c7.1,0,13.5,1.3,18.3,3.4C7315.8-2144.3,7309.4-2142.9,7302.3-2142.9"/>
						<path id="path9375-6_1_" class="st7" d="M7302.4-2153.4c-1.8,0-3.3-1.1-3.3-2.5s1.5-2.5,3.3-2.5s3.3,1.1,3.3,2.5
							C7305.7-2154.6,7304.2-2153.4,7302.4-2153.4"/>
						<path id="path9379-95_1_" class="st7" d="M7323.4-2154.3c-0.1,0-0.1-0.1-0.2-0.1c-1.8-0.8-3.4-0.4-3.6,0.9
							c-0.2,1.3,1,3.1,2.7,4c0.1-0.2,0.2-0.3,0.3-0.5c0.1-0.3,0.2-0.6,0.3-0.9c0.1-0.3,0.2-0.6,0.2-0.9c0.1-0.3,0.1-0.6,0.1-0.9
							c0-0.3,0.1-0.6,0.1-0.8C7323.5-2153.8,7323.4-2154,7323.4-2154.3L7323.4-2154.3z"/>
						<path id="path9383-42_1_" class="st7" d="M7281.3-2154.4c1.8-0.8,3.4-0.4,3.6,0.9c0.2,1.3-1,3.1-2.7,4
							c-0.1-0.2-0.2-0.3-0.3-0.5c-0.1-0.3-0.2-0.6-0.3-0.9c-0.1-0.3-0.2-0.6-0.2-0.9c-0.1-0.3-0.1-0.6-0.1-0.9
							c0-0.3-0.1-0.6-0.1-0.8c0-0.3,0-0.5,0-0.8C7281.2-2154.3,7281.3-2154.4,7281.3-2154.4z"/>
					</g>
					<g id="g84776-5_2_" transform="matrix(0.156684,0,0,0.189706,-492.101,245.296)">
						<g>
							<g>
								<g>
									<defs>
										<polygon id="SVGID_6_" points="7214.7,-2152.7 7207.9,-2177.7 7220.8,-2165.2 7223.5,-2181.3 7229.6,-2166.7 
											7235,-2183.5 7240.4,-2166.7 7246.5,-2181.3 7249.2,-2165.2 7262.1,-2177.7 7255.3,-2152.7 7255.3,-2140.2 
											7214.7,-2140.2 										"/>
									</defs>
									<clipPath id="SVGID_7_">
										<use xlink:href="#SVGID_6_"  style="overflow:visible;"/>
									</clipPath>
									<ellipse id="circle7886-1_2_" class="st8" cx="7235" cy="-2199.9" rx="7.5" ry="9.9"/>
								</g>
							</g>
						</g>
						<path id="path3929-42-2-1_2_" class="st0" d="M7204.7-2173.7c3,5.8,6,11.6,8.9,17.4h44c3.3-5.8,5.8-11.6,9.1-17.4l-11.2,9.7
							l-1-15.4l-11.9,14.2l-6.2-15.9l-6.8,15.9l-10.9-14.2l-2.1,15.4L7204.7-2173.7z"/>
						<path id="path9241-03_2_" class="st0" d="M7235.6-2151.9c-7.9,0-15,1.7-20,4.2c0.4-0.3-0.2-3.2-0.7-5.4
							c-0.6-2.7-1.5-3.1-1.5-3.1c5.5-2.7,13.8-4.6,22.3-4.6c8.6,0,16.8,1.9,22.4,4.6c0,0-1.1,0.6-1.7,3.3c-0.5,2.2-0.9,5-0.5,5.3
							C7250.8-2150.2,7243.6-2151.8,7235.6-2151.9"/>
						<path id="path9243-6_2_" class="st3" d="M7235.7-2160.1c-8.6,0-16.3,1.7-21.8,4.4c-0.4,0.2-0.8-0.1-0.9-0.6
							c-0.1-0.6,0.1-1.2,0.4-1.4c5.6-2.8,13.5-4.6,22.2-4.6c8.8,0,16.7,1.8,22.3,4.6c0.4,0.2,0.6,0.8,0.4,1.4
							c-0.1,0.6-0.5,0.8-0.9,0.6C7252-2158.4,7244.3-2160.1,7235.7-2160.1"/>
						<path id="path9371-96_2_" class="st0" d="M7235.7-2141.2c-7.8,0-14.8-1.5-19.8-4c-0.4-0.2-0.6-0.7-0.5-1.3
							c0-0.6,0.2-1.1,0.5-1.2c5-2.5,12-4,19.8-4s14.8,1.5,19.8,4c0.4,0.2,0.5,0.7,0.5,1.2c0,0.6-0.2,1.1-0.5,1.3
							C7250.5-2142.8,7243.5-2141.3,7235.7-2141.2"/>
						<path id="path9373-9_2_" class="st3" d="M7235.7-2142.9c-7.1,0-13.4-1.4-18.3-3.4c4.9-2.1,11.2-3.3,18.3-3.4
							c7.1,0,13.5,1.3,18.3,3.4C7249.2-2144.3,7242.8-2142.9,7235.7-2142.9"/>
						<path id="path9375-6_2_" class="st9" d="M7235.7-2153.4c-1.8,0-3.3-1.1-3.3-2.5s1.5-2.5,3.3-2.5s3.3,1.1,3.3,2.5
							C7239-2154.6,7237.5-2153.4,7235.7-2153.4"/>
						<path id="path9379-95_2_" class="st9" d="M7256.8-2154.3c-0.1,0-0.1-0.1-0.2-0.1c-1.8-0.8-3.4-0.4-3.6,0.9
							c-0.2,1.3,1,3.1,2.7,4c0.1-0.2,0.2-0.3,0.3-0.5c0.1-0.3,0.2-0.6,0.3-0.9c0.1-0.3,0.2-0.6,0.2-0.9c0.1-0.3,0.1-0.6,0.1-0.9
							c0-0.3,0.1-0.6,0.1-0.8C7256.8-2153.8,7256.8-2154,7256.8-2154.3L7256.8-2154.3z"/>
						<path id="path9383-42_2_" class="st9" d="M7214.7-2154.4c1.8-0.8,3.4-0.4,3.6,0.9c0.2,1.3-1,3.1-2.7,4
							c-0.1-0.2-0.2-0.3-0.3-0.5c-0.1-0.3-0.2-0.6-0.3-0.9c-0.1-0.3-0.2-0.6-0.2-0.9c-0.1-0.3-0.1-0.6-0.1-0.9
							c0-0.3-0.1-0.6-0.1-0.8c0-0.3,0-0.5,0-0.8C7214.5-2154.3,7214.6-2154.4,7214.7-2154.4z"/>
					</g>
					<g id="g84776-5_3_" transform="matrix(0.156684,0,0,0.189706,-492.101,245.296)">
						<g>
							<g>
								<g>
									<defs>
										<polygon id="SVGID_8_" points="7248,-2106.5 7241.2,-2131.4 7254.1,-2118.9 7256.8,-2135.1 7262.9,-2120.4 
											7268.3,-2137.3 7273.8,-2120.4 7279.9,-2135.1 7282.6,-2118.9 7295.4,-2131.4 7288.7,-2106.5 7288.7,-2094 7248,-2094 
																					"/>
									</defs>
									<clipPath id="SVGID_9_">
										<use xlink:href="#SVGID_8_"  style="overflow:visible;"/>
									</clipPath>
									<ellipse id="circle7886-1_3_" class="st10" cx="7268.3" cy="-2153.7" rx="7.5" ry="9.9"/>
								</g>
							</g>
						</g>
						<path id="path3929-42-2-1_3_" class="st0" d="M7238-2127.5c3,5.8,6,11.6,8.9,17.4h44c3.3-5.8,5.8-11.6,9.1-17.4l-11.2,9.7
							l-1-15.4l-11.9,14.2l-6.2-15.9l-6.8,15.9l-10.9-14.2l-2.1,15.4L7238-2127.5z"/>
						<path id="path9241-03_3_" class="st0" d="M7269-2105.6c-7.9,0-15,1.7-20,4.2c0.4-0.3-0.2-3.2-0.7-5.4
							c-0.6-2.7-1.5-3.1-1.5-3.1c5.5-2.7,13.8-4.6,22.3-4.6c8.6,0,16.8,1.9,22.4,4.6c0,0-1.1,0.6-1.7,3.3c-0.5,2.2-0.9,5-0.5,5.3
							C7284.1-2103.9,7276.9-2105.6,7269-2105.6"/>
						<path id="path9243-6_3_" class="st3" d="M7269-2113.9c-8.6,0-16.3,1.7-21.8,4.4c-0.4,0.2-0.8-0.1-0.9-0.6
							c-0.1-0.6,0.1-1.2,0.4-1.4c5.6-2.8,13.5-4.6,22.2-4.6c8.8,0,16.7,1.8,22.3,4.6c0.4,0.2,0.6,0.8,0.4,1.4
							c-0.1,0.6-0.5,0.8-0.9,0.6C7285.3-2112.2,7277.6-2113.9,7269-2113.9"/>
						<path id="path9371-96_3_" class="st0" d="M7269-2095c-7.8,0-14.8-1.5-19.8-4c-0.4-0.2-0.6-0.7-0.5-1.3c0-0.6,0.2-1.1,0.5-1.2
							c5-2.5,12-4,19.8-4s14.8,1.5,19.8,4c0.4,0.2,0.5,0.7,0.5,1.2c0,0.6-0.2,1.1-0.5,1.3C7283.9-2096.5,7276.9-2095,7269-2095"/>
						<path id="path9373-9_3_" class="st3" d="M7269-2096.7c-7.1,0-13.4-1.4-18.3-3.4c4.9-2.1,11.2-3.3,18.3-3.4
							c7.1,0,13.5,1.3,18.3,3.4C7282.5-2098,7276.1-2096.7,7269-2096.7"/>
						<path id="path9375-6_3_" class="st7" d="M7269-2107.2c-1.8,0-3.3-1.1-3.3-2.5s1.5-2.5,3.3-2.5s3.3,1.1,3.3,2.5
							S7270.9-2107.2,7269-2107.2"/>
						<path id="path9379-95_3_" class="st7" d="M7290.1-2108c-0.1,0-0.1-0.1-0.2-0.1c-1.8-0.8-3.4-0.4-3.6,0.9c-0.2,1.3,1,3.1,2.7,4
							c0.1-0.2,0.2-0.3,0.3-0.5c0.1-0.3,0.2-0.6,0.3-0.9c0.1-0.3,0.2-0.6,0.2-0.9c0.1-0.3,0.1-0.6,0.1-0.9c0-0.3,0.1-0.6,0.1-0.8
							C7290.1-2107.5,7290.1-2107.8,7290.1-2108L7290.1-2108z"/>
						<path id="path9383-42_3_" class="st7" d="M7248-2108.1c1.8-0.8,3.4-0.4,3.6,0.9c0.2,1.3-1,3.1-2.7,4c-0.1-0.2-0.2-0.3-0.3-0.5
							c-0.1-0.3-0.2-0.6-0.3-0.9c-0.1-0.3-0.2-0.6-0.2-0.9c-0.1-0.3-0.1-0.6-0.1-0.9c0-0.3-0.1-0.6-0.1-0.8c0-0.3,0-0.5,0-0.8
							L7248-2108.1z"/>
					</g>
				</g>
				<g>
					<path id="path7014-6-7-28-3-2-4-5-1-1-1_1_" class="st5" d="M90,53.3c0.1,3.3,0.2,5.9,1.9,7.9c2,2.4,5.3,4.2,9.6,5.9
						c4.3-1.7,7.6-3.5,9.6-5.9c1.7-2,1.9-4.6,1.9-7.9c0.1-3.4,0.1-7.8,0-11.2c-3.6,2.7-9.5,1.8-11.6,0.1c-2.9,2-8.2,2.7-11.5-0.1
						C90,45.4,90,49.8,90,53.3L90,53.3z"/>
					<path id="path63519_4_" class="st11" d="M98.6,65.7v-2.5c0-1.5,0-3.6,0-4.8v-2.2h-4.2h-4.1"/>
					<path id="path63519_3_" class="st11" d="M113,56.3h-4.1h-4.1v1.1c0,0.9,0.1,7.6,0.1,8.3"/>
					<path id="path63519_5_" class="st11" d="M104.7,43.5v3.2v3.2h4.2h4.3"/>
					<path id="path63519_1_" class="st11" d="M90,49.8h4.3h4.2v-2.5c0-1.4,0-2.8,0-3.2v-0.6"/>
					<path id="path7014-6-7-28-2-87_1_" class="st12" d="M97.3,47.8c0,1.6,0,3.3,0,4.9c0,1.6,0.1,2.8,0.7,3.8c0.7,1.2,2,2,3.5,2.8
						c1.6-0.8,2.8-1.7,3.5-2.8c0.6-1,0.7-2.2,0.7-3.8s0-3.3,0-4.9H97.3L97.3,47.8z"/>
					<g id="g9597-9_1_" transform="matrix(-0.234377,0,0,0.231606,-73.243,415.548)">
						<g id="g10725-5_1_">
							<g id="g3657-9_1_" transform="matrix(1.21977,0,0,1.21977,-43.0033,-4.45441)">
								<path id="path8616-8_1_" class="st13" d="M-580.9-1282.7c-0.1-0.3-0.3-1.1-0.3-1.3c-0.2-1.1-1.7-1.7-2.3-1.1
									c-0.4,0.3,0.1,1.4,0.1,2.1c0,0.6-0.8,2.3-0.8,3.1s0.2,4.7,0.2,5.7c0,1.1,1.1,2,1.7,2.8c0.6,0.9,1.2,1.5,1.4,2.8
									c0.3,1.5,0.1,1.8-0.2,3.6c0.1,0.4,7,1.6,9.9-0.1c-0.3-1.3-0.4-2.4-0.2-4.2c0.9-1.7,2.4-2.9,2.8-4.1c0.4-1.2,0.4-3.9,0.2-4.9
									c-0.1-0.5-0.3-3.3-0.4-3.5c0-0.3-0.1-3.3-0.1-3.4s0-3.1-0.1-3.4c-0.3-1.4-2.5-1.3-2.7,0c-0.1,0.3-0.1,4.2-0.1,4.2
									c0,0.1,0,2.6,0,2.9c-0.1-0.3,0-4.7,0-5.4c0-1.6,0.1-4.7,0-5c0-1.2-2.4-1.6-2.8,0c-0.1,0.4-0.1,5-0.1,4.9
									c0,0.1-0.1,4.4-0.1,4.5c-0.1,0.3,0.1-7.1,0.1-7.2s0-2.4,0-3.6c-0.1-1.6-3-1.7-3,0.1c0,0.1-0.1,3.1-0.1,3.2v0.9
									c0,0-0.1,6-0.1,6.3c0-0.3,0-2.8,0-2.8s0.2-6.1,0-6.5c-0.3-1-2.4-1.1-2.6,0.3c-0.1,0.1-0.1,2.9-0.1,3s-0.1,3.1-0.1,3.3
									c0,0.1,0,1.1,0,1.2C-580.9-1283.1-580.9-1282.7-580.9-1282.7L-580.9-1282.7z"/>
								<path id="path8681-8_1_" class="st14" d="M-580.9-1283c0.3,1.1-0.2,2-0.2,2.6s0.3,2,0.3,2l0.1,0.2c0,0,2.1,0.3,2.9,0.9
									c0.8,0.6,1.7,3.6,1.4,5.7"/>
							</g>
						</g>
					</g>
					<path id="path46369_1_" class="st15" d="M113,55.2L113,55.2L113,55.2L113,55.2L113,55.2z"/>
					<path id="path46371_1_" class="st15" d="M113,55.2L113,55.2L113,55.2L113,55.2L113,55.2z"/>
				</g>
				<g>
					<path id="path7014-6-7-28-3-2-4-5-1-1_1_" class="st16" d="M153.7,53.3c0.1,3.3,0.2,5.9,1.9,7.9c2,2.4,5.4,4.2,9.7,5.9
						c4.3-1.7,7.6-3.5,9.7-5.9c1.7-2,1.9-4.6,1.9-7.9c0.1-3.4,0.1-7.8,0-11.2c-3.6,2.7-9.5,1.8-11.6,0.1c-2.9,2-8.2,2.7-11.5-0.1
						C153.7,45.4,153.7,49.8,153.7,53.3L153.7,53.3z"/>
					<g id="g113300_1_" transform="matrix(0.87394196,0,0,0.90257648,-176.44322,55.820288)">
						<g id="g30394-4_1_" transform="matrix(0.03554807,-0.00735372,0.00789863,0.0334871,968.97343,435.61974)">
							<g id="g28386-1-5_1_" transform="matrix(8.9876989,0,0,9.1852387,-7108.3373,1263.1939)">
								<path id="path10147-8-3-7-4-6-1_1_" class="st17" d="M-620.4-1840.3c-2.2-0.1-2.3-0.1-2.9-0.3c-0.3-0.1-0.7-0.2-0.7-0.2
									l-0.2-0.1c-0.1,0-0.3-0.1-0.3-0.1s3.4-8.3,7.5-18.3l7.4-18.1l-0.2-0.4c-0.2-0.6-0.4-0.9-0.8-1.2c-0.1-0.1-0.2-0.1-0.3-0.2
									s-0.2-0.1-0.4-0.1c-0.1,0-0.3-0.1-0.4-0.1c-0.1,0-0.3-0.1-0.5-0.1l-0.2-0.1l0.2-0.2c0.2-0.2,0.5-0.3,0.6-0.3
									c0.2,0,1.8,0.3,2.4,0.5c0.8,0.2,1.6,0.6,2.3,1.2l0.6,0.4l0.1,0.5c0.2,0.7,0.2,1,0,1.4c-0.1,0.2-2.6,8-5.7,17.4
									c-3.1,9.4-5.7,17.4-5.9,17.8c-0.2,0.6-0.2,0.8-0.3,0.8C-618-1840-619.2-1840.2-620.4-1840.3z"/>
								<path id="path10163-2-7-5-7-0-4_1_" class="st17" d="M-636.1-1881c0.7-1,2.3-2.9,3.2-4.1c0.4-0.6,0.9-1.2,1.4-1.8l0.1,0.1
									l-2.3,2.9c-2.1,2.7-2.2,2.9-2.2,2.9C-636-1880.9-636.1-1880.9-636.1-1881z"/>
								<path id="path10157-4-6-6-3-2-1_1_" class="st17" d="M-632.1-1834.8c-0.7-0.1-0.8-0.3-1.5-1.5l-0.1-0.1l-0.1,0.1
									c-0.3,0.4-1.2,0.4-1.8,0.3c-0.6-0.2-1.1-1.1-1.1-1.7c0.1-0.8,0.8-1.3,1.6-1.1c0.3,0.1,0.8,0.5,0.9,0.8
									c0.1,0.3,0.1,0.4,0,0.6c-0.1,0.1-0.2,0.2-0.4,0.3c-0.2,0.1-0.4,0.1-0.7,0c-0.4-0.1-0.4-0.2-0.4,0c0,0.1,0.4,0.2,0.7,0.2
									c0.3,0.1,0.7-0.1,0.9-0.3c0.2-0.2,0-0.9-0.1-0.9c-0.1-0.1-0.4-0.7-1-1.6c-0.5-0.9-1.3-2.1-2-3.4l-2.7-4.7h-0.4
									c-0.4,0-0.7-0.3-0.7-0.5c0-0.1,0.1-0.3,0.2-0.4c0.2-0.2,0.2-0.2,0-0.4s-0.2-0.4,0-0.6c0.1-0.1,0.2-0.2,0.2-0.3
									c0-0.1-0.4-0.7-0.6-1.3c-0.9-2.7-1.3-5.1-1.6-7.7c-0.3-2.1,0-5.5,0.4-8c0.7-4.5,2.7-8.7,5.1-11.7c0.2-0.2,0.3-0.4,0.3-0.4
									s-0.1-0.1-0.2-0.2c-0.2-0.2-0.2-0.4-0.1-0.5c0.1-0.1,0.1-0.4,0-0.4h-0.2l0.2-0.3c0.1-0.2,0.5-0.2,1-0.1c0.2,0,0.2,0,2.4-2.8
									c1.2-1.6,2.3-3,2.3-3s0.9,0.8,1.9,1.8l1.8,1.8l-0.7,0.6c-4.9,4.5-8.6,10.8-9.3,16.7c-0.2,1.6-0.2,4,0.1,5.6
									c0.5,3.2,1.6,6.2,3.8,10.9l0.6,1.1l1.5,1.6c0.8,0.9,1.7,1.9,2,2.3l0.6,0.7l-0.6,0.7c-2.1,2.4-3.1,4.7-3.3,6
									c-0.1,0.9,0.1,1.4,0.8,1.7c1.5,0.6,4.1-0.7,8-4c0.5-0.4,1.2-1.1,1.2-1.1s0.2,0-0.1,0.3c-0.8,0.8-1.7,1.6-2.5,2.3
									c-0.8,0.7-1.6,1.3-2.4,1.7c-0.8,0.4-1.9,1.1-2.1,1C-630.6-1834.7-631.8-1834.8-632.1-1834.8L-632.1-1834.8z"/>
								<path id="path10151-5-3-0-4-4-2_1_" class="st17" d="M-631.2-1846.1c-1.1-1.2-2.1-2.3-2.1-2.4c0,0,3-4.5,6.7-10.1
									c5.9-9,7.1-10.7,10.3-15.4c2-2.9,3.7-5.4,3.7-5.4c0.3-0.3,2.1,0.4,2.1,0.8c0,0-18.6,34.7-18.7,34.8
									C-629.2-1843.8-630.1-1844.8-631.2-1846.1L-631.2-1846.1z"/>
								<path id="path10167-2-8-6-0-9-6_1_" class="st17" d="M-634.9-1838.9l-0.7-1.2c-0.8-1.4-1.4-2.4-2.1-3.6
									c-0.7-1.2-1.4-2.5-1.9-3.5l-0.4-0.6h0.1c0,0,0.1,0,0.1,0.1c0,0,1.3,2.2,2.6,4.5c1.3,2.2,2.6,4.5,2.6,4.5
									C-634.6-1838.8-634.9-1838.9-634.9-1838.9L-634.9-1838.9z"/>
								<path id="path10159-9-5-0-8-0-6-4_1_" class="st0" d="M-631.9-1835.3c-0.7-0.1-1-0.5-1.1-1.2c-0.2-1.2,0.8-3.3,2.7-5.7
									c0.4-0.5,1.2-1.4,1.2-1.4s1,0.6,2.2,1.4l2.1,1.4l0.7,0.2c0.4,0.1,0.7,0.2,0.7,0.2c0,0.1-2.2,1.9-3,2.6
									c-2.4,1.9-4.1,2.7-5.3,2.6L-631.9-1835.3z"/>
								<path id="path10149-9-9-4-8-2-3_1_" class="st17" d="M-626.8-1842.3c-1.2-0.7-2.2-1.3-2.2-1.3c0-0.1,18.6-34.8,18.6-34.9
									s0.3,0.4,0.4,0.9l0.2,0.4l-7.4,18.1c-4.1,10-7.4,18.2-7.5,18.2C-624.7-1841-625.7-1841.6-626.8-1842.3z"/>
								<path id="path4728-1-5-2-8-2-6-5-1-0_1_" class="st17" d="M-633.4-1888.6v-0.7l5-3.5l0.4,0.4"/>
								<path id="path3000-3-5-2-6-0-2-0-3-5_1_" class="st17" d="M-610.4-1881.3c-0.2-0.6-1-1.3-1.6-1.3c-0.2,0-0.4,0.2-0.9,0.4
									c-0.3,0.2-0.6,0.3-1,0.5c-0.7,0.3-1.4,0.6-2.1,0.9c-0.7,0.3-1.4,0.5-2.1,0.7c-0.7,0.2-1.3,0.3-1.9,0.4c-0.8,0-1.6,0-2.3-0.2
									c-1.4-0.4-2.7-1.1-3.6-1.8l-1.7-1.4l-5.6-5.5l5.4-3.7c0.3,0.4,0.7,1,1.2,1.6s1.1,1.3,1.7,2c0.6,0.7,1.3,1.4,1.9,2
									c1.2,1.1,2.6,1.8,4.1,1.8c0.7,0,1.3-0.1,1.8-0.3c1.2-0.3,2.3-0.9,3.8-1.1c1.6-0.3,3-0.1,4.2,0.5c0.6,0.3,1.1,0.7,1.6,1.2
									c1.5,1.9,1.7,2.6,1.2,4.6"/>
								<path id="path2996-5-7-5-4-9-4-4-8-2-6_1_" class="st17" d="M-611.6-1880.1c3.4,0.6,3.8,1,5.3,2.1l-0.2-2
									c-1.7-1-2.4-1.1-4.3-1.4L-611.6-1880.1z"/>
								<path id="path3002-1-5-3-6-4-1-2-3-0_1_" class="st18" d="M-622.8-1840.3c-2.1,2-6.7,6.5-9.7,5.5c-0.2-0.1-0.4-0.2-0.5-0.4
									c-0.3-0.3-0.5-0.7-0.7-1.1c-0.4,0.4-1.1,0.5-1.6,0.4c-0.3-0.1-0.6-0.2-0.8-0.4c-0.5-0.5-0.7-1.2-0.4-1.8
									c0.1-0.3,0.3-0.5,0.6-0.6c0.5-0.3,1.2-0.3,1.6,0.3l-5.5-9.5c-1,0.1-1.5-0.5-0.8-1.1c-0.5-0.4-0.4-0.7,0-1.1
									c-1.2-3.4-2-6.9-2.2-10.4c-0.1-5.4,0.9-10.2,3.2-14.7c0.8-1.5,1.7-2.9,2.7-4.1c-0.4-0.4-0.4-0.6-0.1-0.9
									c0-0.1-0.3-0.1-0.3-0.2s0.1-0.2,0.1-0.3c0.4-0.4,0.8-0.2,1.3-0.2l4.5-5.8"/>
								<path id="path3026-8-6-2-5-4-1-9-1-8_1_" class="st19" d="M-635.7-1837.3c0.3,0.2,0.6,0.3,0.9,0.3c0.6-0.1,0.9-0.4,0.8-0.9
									c-0.1-0.2-0.2-0.4-0.4-0.6"/>
								<polygon id="rect4657-4-2-1-9-8-3-2-8-2_1_" class="st17" points="-631.8,-1891 -631.2,-1890.4 -632.6,-1889.4 
									-633.1,-1890 								"/>
								<polygon id="rect4657-0-0-3-0-9-3-9-7-8-1-7_1_" class="st17" points="-629.5,-1892.6 -628.9,-1892 -630.3,-1891 
									-630.8,-1891.6 								"/>
								<path id="path4634-0-1-1-2-0-1-3-9-4_1_" class="st0" d="M-629.4-1886.4l0.4,39.8l-0.5,0.2l-0.4-40.2L-629.4-1886.4z"/>
								<path id="path4634-0-1-1-2-0-1-4-4-0_1_" class="st0" d="M-628-1885l0.4,35.7l-0.5,0.2l-0.4-36.1L-628-1885z"/>
								<path id="path4634-0-1-1-2-0-1-0-6-9-6_1_" class="st0" d="M-626.5-1883.7l0.3,32.1l-0.5,0.2l-0.3-32.4L-626.5-1883.7z"/>
								<path id="path4634-0-1-1-2-0-1-8-3-4_1_" class="st0" d="M-625.1-1882.5l0.3,28.4l-0.5,0.2l-0.3-28.7L-625.1-1882.5z"/>
								<path id="path4634-0-1-1-2-0-1-5-4-4_1_" class="st0" d="M-623.8-1881.8l0.1,25.3l-0.5,0.1l-0.1-25.6L-623.8-1881.8z"/>
								<path id="path4634-0-1-1-2-0-1-81-29-0-4-9-3_1_" class="st0" d="M-612.5-1883.4l0.2,6.3h-0.5l-0.2-6.4L-612.5-1883.4z"/>
								<path id="path4634-0-1-1-2-0-1-81-29-0-0-5_1_" class="st0" d="M-613.7-1882.8l0.2,7.7h-0.5l-0.2-7.7H-613.7z"/>
								<path id="path4634-0-1-1-2-0-1-81-29-5-8_1_" class="st0" d="M-615-1882.2l0.3,9.6l-0.5,0.1l-0.3-9.7H-615z"/>
								<path id="path4634-0-1-1-2-0-1-81-66-3-4_1_" class="st0" d="M-616.3-1881.7l0.3,11.3l-0.5,0.1l-0.3-11.4H-616.3z"/>
								<path id="path4634-0-1-1-2-0-1-81-6-9-1_1_" class="st0" d="M-617.7-1881.2l0.4,13l-0.5,0.1l-0.4-13.1H-617.7z"/>
								<path id="path4634-0-1-1-2-0-1-81-24-1-0_1_" class="st0" d="M-618.9-1880.9l0.3,15.1l-0.5,0.1l-0.3-15.3L-618.9-1880.9z"/>
								<path id="path4634-0-1-1-2-0-1-81-3-2-3_1_" class="st0" d="M-620.1-1880.7l0.3,17.3l-0.5,0.1l-0.3-17.5L-620.1-1880.7z"/>
								<path id="path4634-0-1-1-2-0-1-81-2-8-3_1_" class="st0" d="M-621.3-1880.8l0.3,19.7l-0.5,0.1l-0.3-19.9L-621.3-1880.8z"/>
								<path id="path4634-0-1-1-2-0-1-81-8-4_1_" class="st0" d="M-622.6-1881.1l0.3,22.5l-0.5,0.1l-0.3-22.7L-622.6-1881.1z"/>
								<path id="path3024-3-4-0-5-3-0-1-6-2-8_1_" class="st19" d="M-622.8-1840.4l-1.8-0.5l-4.4-2.8c-1.8,2-5.2,6.5-3.5,8.1
									c0.4,0.3,1,0.4,1.7,0.3c0.9-0.1,1.9-0.6,2.9-1.3c1-0.6,2-1.4,2.9-2.1s1.6-1.4,2.1-1.8"/>
							</g>
						</g>
					</g>
				</g>
				<g id="g78883_1_" transform="translate(-544.93403,251.396)">
					<path id="path64764_1_" class="st20" d="M706.5-149.3c-0.5-0.3-0.7-0.3-1-0.5s-0.3-0.2-0.5-0.3s-0.9-0.5-1-0.6
						s-0.2-0.1-0.3-0.2c-0.2-0.1-0.4-0.2-0.7-0.4s-0.7-0.5-1.3-1.1c-0.9-0.9-1.6-1.6-2-2.5s-0.6-2-0.8-3.5c-0.1-0.4-0.2-1.7-0.2-3
						c-0.1-2.4,0-11.2,0-11.3c0,0,0.2,0.1,0.2,0.2c0.3,0.2,1,0.7,1.5,0.9c1,0.4,1.6,0.6,2.3,0.7c1.1,0.2,2.2,0.2,3.5-0.1
						c1.6-0.3,2.2-0.5,3.5-1.2c0.2-0.1,0.3-0.2,0.5-0.3c0.1,12.1,0.1,12,0,24.9c-0.3-0.1-0.6-0.2-0.9-0.4
						C708.4-148.4,707.4-148.8,706.5-149.3L706.5-149.3z"/>
					<g id="g29973-7_1_" transform="matrix(0.2176,0,0,0.253848,1096.44,547.586)">
						<polygon id="rect29401-0_1_" class="st3" points="-1782.2,-2814 -1782.2,-2813.9 -1782.3,-2813.9 -1782.3,-2814 						"/>
						<path id="path9379-7-3_1_" class="st3" d="M-1790.4-2811.5c-0.2,0-0.2-0.1,0.1-0.2c0.1,0,0.2-0.1,0.2-0.1
							c0.4-0.1,0.6-0.3,1-0.5s0.7-0.4,1-0.6c0.5-0.3,0.8-0.5,1.2-0.8c1.2-0.7,2.5-1.1,3.8-1.4c0.5-0.1,1.1-0.1,1.5-0.1
							c0.1,0,1.5-0.1,1.5-0.1l0,0c0,0.2,0.1,0.4,0,0.6c0,0.2,0,0.3-0.1,0.4l0,0c0,0-0.1,0-0.2-0.1c-0.1,0-0.3,0.5-0.5,0.5
							c-1.3,0-1.5-0.6-2.7-0.3c-0.3,0.1-0.5,0.1-0.8,0.1c-0.3,0.1-0.5,0.2-0.8,0.3s-0.5,0.2-0.8,0.3c-0.6,0.2-1.1,0.5-1.8,0.9
							c-0.4,0.2-0.4,0.2-0.6,0.3c-0.7,0.3-1.2,0.6-1.6,0.6C-1790.1-2811.5-1790.3-2811.5-1790.4-2811.5L-1790.4-2811.5z"/>
						<g id="g5919-4_1_" transform="matrix(3.83783,0,0,3.74193,-962.708,-15.542)">
							<g id="g64-0_1_">
								<path id="path7155_12-0_1_" class="st21" d="M-214.9-739.1c0-0.2,0.3-0.6,0.3-0.8c0.3-0.8,0.3-3.6,0.3-4.4
									c0.2,0,0.4-0.1,0.6-0.1c0.2,0.7,0.1,3.5-0.4,4.3c0.4-0.8,0.5-3.5,0.4-4.3c0.3-0.1,0.3-0.1,0.6-0.2c0,0.8,0.1,3.6-0.5,4.5
									c-0.2,0.3-0.5,0.6-0.9,0.9C-214.6-739.1-214.8-739-214.9-739.1L-214.9-739.1z"/>
								<path id="path7155_13-5_1_" class="st21" d="M-216.7-738.5c0-0.3,0.4-0.9,0.5-1.1c0.5-1.2,0.7-2.6,0.7-3.8
									c0.2-0.1,0.5-0.2,0.7-0.3c0.2,1,0,2.7-0.7,3.8c0.7-1,0.9-2.8,0.7-3.8c0.4-0.1,0.5-0.1,0.8-0.2c0,1.2,0,2.9-0.8,4.1
									c-0.3,0.4-0.8,0.8-1.3,1.2C-216.3-738.5-216.6-738.3-216.7-738.5L-216.7-738.5z"/>
								<path id="path7155_14-3_1_" class="st21" d="M-219-738.4c0.1-0.3,0.6-0.8,0.8-1.1c0.8-1.2,1.4-2.7,1.7-4
									c0.3-0.1,0.5-0.1,0.8-0.2c-0.1,1.1-0.7,2.9-1.7,4c0.9-1,1.5-2.8,1.7-4c0.4,0,0.4,0,0.7-0.1c-0.2,1.3-0.6,3.1-1.8,4.2
									c-0.4,0.4-1,0.7-1.6,1C-218.6-738.4-218.9-738.3-219-738.4L-219-738.4L-219-738.4L-219-738.4z"/>
								<path id="path7153_15-1_1_" class="st21" d="M-219.6-739.9c0.1-0.2,0.2-0.4,0.4-0.6c0.2-0.4,0.5-0.8,0.8-1.2
									s0.5-0.7,0.6-1.1c0.1-0.3,0.2-0.5,0.3-0.8c0.1-0.1,0.3-0.4,0.4-0.4c0.1,0.1,0.3,0.1,0.4,0.1c-0.2,1-0.9,2.4-1.7,3
									c0.8-0.6,1.5-2,1.7-3c0.4-0.1,0.4-0.1,0.7-0.1c-0.3,1-0.7,2.1-1.5,2.9c-0.5,0.5-1.2,1-1.9,1.4
									C-219.6-739.7-219.6-739.7-219.6-739.9L-219.6-739.9L-219.6-739.9z"/>
								<path id="path7155_16-0_1_" class="st21" d="M-221-741.4c0.2-0.2,0.7-0.5,0.9-0.6c1-0.6,1.9-1.7,2.5-2.6c0.2,0,0.4,0,0.6,0
									c-0.5,0.8-1.4,2-2.5,2.6c1-0.5,2-1.7,2.5-2.6c0.3,0.1,0.4,0.1,0.6,0.2c-0.6,0.8-1,1.4-1.8,2.1c-0.2,0.2-0.6,0.5-0.9,0.6
									c-0.4,0.2-0.9,0.2-1.5,0.3C-220.8-741.2-221.1-741.3-221-741.4L-221-741.4L-221-741.4z"/>
								<path id="path7155_17-6_1_" class="st21" d="M-221.5-742.6c0.2-0.2,0.7-0.4,0.9-0.5c1-0.5,1.9-1.4,2.7-2.2
									c0.2,0,0.3,0,0.5,0.1c-0.5,0.7-1.6,1.8-2.6,2.2c1-0.4,2-1.5,2.6-2.2c0.2,0.1,0.3,0.1,0.5,0.2c-0.6,0.7-1.1,1.2-1.9,1.9
									c-0.2,0.2-0.6,0.4-0.9,0.5c-0.4,0.1-0.9,0.1-1.4,0.2C-221.4-742.4-221.6-742.5-221.5-742.6L-221.5-742.6L-221.5-742.6z"/>
								<path id="path7155_18-7_1_" class="st21" d="M-222-744.4c0.2-0.1,0.8-0.2,1-0.2c1-0.2,1.9-0.7,2.8-1.3
									c0.1,0.1,0.2,0.4,0.3,0.4c-0.7,0.5-1.7,1.1-2.7,1.2c1-0.2,1.9-0.7,2.7-1.2c0.2,0,0.4-0.1,0.5-0.2c0,0.1,0.1,0.2,0.2,0.3
									c-0.9,0.7-2.1,1.5-3.3,1.6c-0.4,0-0.8-0.1-1.3-0.2C-221.9-744.1-222.1-744.3-222-744.4L-222-744.4L-222-744.4L-222-744.4z"
									/>
								<path id="path7155_19-5_1_" class="st21" d="M-221.7-746.3c0.3-0.1,0.5-0.1,0.7,0c1.1,0.2,2.2-0.1,3.2-0.2
									c0.1,0.2,0.1,0.4,0.4,0.5c-0.9,0.2-1.9,0.3-2.9,0.2c1,0.1,1.9,0,2.9-0.2c0.1,0,0.3,0.2,0.5,0.2c-1.2,0.3-2.5,0.8-3.7,0.4
									c-0.4-0.1-0.7-0.3-1.1-0.6C-221.9-746.1-221.9-746.2-221.7-746.3L-221.7-746.3L-221.7-746.3z"/>
								<path id="path7155_20-0_1_" class="st21" d="M-221.1-747.4c0.2,0,0.4,0,0.6,0c0.8,0.2,1.8,0.3,2.7,0.3v0.1
									c0.1,0.1,0.1,0.2,0.2,0.2c-0.8,0-1.6,0.1-2.5-0.2c0.9,0.3,1.7,0.2,2.5,0.2c0,0,0.2,0.2,0.3,0.3c-1.2,0.1-2.2,0.2-3.1-0.2
									c-0.3-0.1-0.6-0.3-0.9-0.5C-221.2-747.3-221.2-747.4-221.1-747.4L-221.1-747.4L-221.1-747.4L-221.1-747.4z"/>
								<path id="path7153_21-0_1_" class="st21" d="M-220.6-748.4c0.2,0.1,0.3,0.1,0.5,0.2c0.3,0.1,0.6,0.1,0.9,0.3
									c0.4,0.2,1.5,0.7,1.9,0.8c-0.1,0-0.3,0.1-0.3,0.2c-0.8-0.1-1.7-0.4-2.3-0.8c0.7,0.4,1.5,0.7,2.3,0.8c0,0.1,0.1,0.1,0.1,0.1
									c-0.8-0.1-1.6-0.2-2.3-0.6C-220.1-747.7-220.4-747.9-220.6-748.4C-220.7-748.4-220.6-748.5-220.6-748.4L-220.6-748.4
									L-220.6-748.4z"/>
								<path id="path7153_22-4_1_" class="st21" d="M-220.2-749.1c0.2,0.1,0.3,0.1,0.5,0.2c0.3,0.1,0.6,0.2,0.9,0.3
									c0.4,0.2,1.4,0.8,1.9,0.9c-0.1,0-0.3,0.1-0.3,0.1c-0.8-0.2-1.6-0.5-2.2-1c0.6,0.5,1.4,0.8,2.2,1c0,0.1-0.1,0.2-0.1,0.3
									c-0.8-0.2-1.4-0.4-2.1-0.8C-219.8-748.3-220.1-748.6-220.2-749.1C-220.3-749.1-220.3-749.1-220.2-749.1L-220.2-749.1
									L-220.2-749.1z"/>
								<path id="path7153_23-5_1_" class="st21" d="M-219.8-749.8c0.1,0.1,0.2,0.2,0.4,0.3c0.3,0.2,0.5,0.2,0.8,0.5s1.2,1,1.6,1.2
									c-0.1,0-0.3,0.1-0.3,0.1c-0.7-0.3-1.4-0.7-1.9-1.3c0.5,0.5,1.2,1,1.9,1.3c0,0.1,0.1,0.2,0,0.3c-0.7-0.3-1.3-0.5-2-1.1
									c-0.3-0.4-0.5-0.6-0.6-1.1C-219.9-749.8-219.9-749.9-219.8-749.8L-219.8-749.8L-219.8-749.8z"/>
								<path id="path7153_24-4_1_" class="st21" d="M-219.1-750.7c0.1,0.1,0.1,0.2,0.3,0.4c0.2,0.3,0.4,0.4,0.6,0.7
									c0.2,0.4,0.7,1.3,1,1.7c-0.1,0-0.2-0.1-0.2,0c-0.6-0.5-1.1-1.1-1.4-1.7c0.3,0.7,0.8,1.3,1.4,1.7c0,0.1,0,0.2-0.1,0.2
									c-0.5-0.5-1.2-0.8-1.5-1.6c-0.2-0.5-0.3-0.8-0.2-1.3C-219.2-750.7-219.1-750.8-219.1-750.7L-219.1-750.7L-219.1-750.7z"/>
								<path id="path7151_25-9_1_" class="st21" d="M-217.7-751.5c-0.3,0.4-0.3,1-0.2,1.4c0.1,0.3,0.3,0.6,0.5,0.9
									c0.1,0.2,0.2,0.3,0.3,0.5c0,0.1,0.1,0.3,0,0.3c0,0.1-0.1,0.1-0.1,0.1c-0.1,0-0.2,0-0.2-0.1c-0.4-0.6-0.9-1.3-0.8-1.9
									c-0.1,0.6,0.4,1.3,0.8,1.9c0.1,0,0.2,0.1,0.2,0.1l-0.1,0.2c-0.3-0.2-1-1-1.2-1.6C-218.6-750.1-218.6-751-217.7-751.5
									L-217.7-751.5L-217.7-751.5L-217.7-751.5z"/>
								<g id="g80-4-5_1_">
									<path id="path7151_26-6_1_" class="st21" d="M-216.9-748.7c-0.2-0.1-0.5-0.3-0.6-0.5c-0.1-0.1-0.5-0.7-0.1-1.2
										c0,0.3,0.1,0.6,0.4,0.9c0.1,0.2,0.4,0.3,0.5,0.4c0,0,0.1,0,0.1,0.1L-216.9-748.7L-216.9-748.7L-216.9-748.7L-216.9-748.7z"
										/>
								</g>
							</g>
							<g id="g84-8_1_">
								<path id="_38899352-2_1_" class="st21" d="M-216.4-743.7c-0.3,0.9,0.6,1.3,1.1,0.7c0.2,0.9,1.2,0.7,1.3,0.1l-0.2-0.5
									c0.4-0.4,0.6-0.9,0.8-1.1l-0.2-0.4c-0.3,0.1-0.6,0.3-1.1,0.4c-0.3,0-0.6-0.2-0.7-0.5c-0.7-1.1-0.4-2.1-0.3-2.6
									c0.3-1.3-1.3-1.5-1.2-2.3c-0.1,0.2-0.2,0.3-0.1,0.5c-0.4,0.1-0.7,0.4-0.5,0.8c-0.2,0-0.5,0-0.7,0.2
									c-0.3,0.3-0.2,0.8,0.3,1.1c-0.1,0-0.3,0.1-0.4,0.2c-0.4,0.3-0.1,1,0.7,1.1c-0.8,0.6-0.1,1.2,0.7,1.1
									C-217.8-744-217.2-743.4-216.4-743.7L-216.4-743.7L-216.4-743.7L-216.4-743.7z"/>
							</g>
						</g>
						<path id="path3043-4_1_" class="st3" d="M-1797.2-2771.1c-0.5,0.1-1.3,0.1-1.8-0.1c-0.7-0.3-1.3-1.4-2-1.7
							c-0.5-0.2-1.1-0.1-1.3,0.3c-0.2,0.5,0,1,0.4,1.1c0.3,0.1,0.7-0.1,1,0.1c0.2,0.1,0.3,0.4,0.5,0.6c0.2,0.1,0.4,0.2,0.7,0.3
							C-1798.9-2770.3-1798-2770.8-1797.2-2771.1L-1797.2-2771.1z"/>
						<path id="path3035-9-5_1_" class="st3" d="M-1800.3-2769.5c-1.1,0.2-2.2,0.2-2.6,0.7c-0.3,0.3-0.2,0.9,0,1.4
							c0.2,0.4,0.7,0.7,1.2,0.4c0.6-0.3,0.8-1.4,1.5-1.6c0.7-0.2,1.1,0,1.8,0.1c0.6,0.1,1.2,0,1.8-0.5c0.3,0,0.7,0.1,1,0.4
							c0.2,0.3,0.3,0.8,0.7,1c0.4,0.2,1.1,0.1,1.4-0.4c0.3-0.7,0.2-1.6-0.5-1.8c-0.4-0.2-1.5-0.1-2.1,0c1.6-0.7,4.3-1.3,6.2-2.1
							c0.4-0.2,1.8,0.3,2.6-0.1l3.3-2.1l-3.4-1.8l-2.2,1.6c-2.1,1.3-5,2.3-7.9,3.3c-1.5,0.6-2.1,0.5-2.9,0.5c-0.8-0.3-1.8-1-2.3-0.7
							l-0.5,1c0.2,0.5,0.7,1.2,1.7,0.3c0,0,0.1-0.1,0.1,0C-1801.1-2769.8-1800.6-2769.5-1800.3-2769.5L-1800.3-2769.5z"/>
						<path id="path3441-7-7_1_" class="st3" d="M-1802.3-2773.5c-0.8-0.3-1.7,0.3-1.2,1.3c0.1-0.5,0.8-0.6,1.2,0
							c0.3,0,0.7-0.4,0.6-0.7S-1802-2773.4-1802.3-2773.5L-1802.3-2773.5z M-1792.7-2769.3c-0.2-0.1-0.5-0.1-0.8-0.1
							c-0.6,0.2-0.7,0.9-0.2,1.3c0.7-0.4,1.5,0.2,1.1,0.9c0.9-0.4,1-1,0.8-1.4C-1792-2768.9-1792.3-2769.1-1792.7-2769.3
							L-1792.7-2769.3L-1792.7-2769.3z M-1803-2771.5c-0.1,0-0.1,0-0.2-0.1c-0.4-0.1-0.8-0.1-1.1,0.1c-0.5,0.3-0.7,1.1-0.1,1.5
							c0-0.6,0.8-1,1.4-0.3c0.3-0.1,0.6-0.5,0.5-0.9C-1802.7-2771.3-1802.8-2771.4-1803-2771.5z M-1802.6-2768.7
							c-0.7,0-1.3,0.3-1.6,0.8c-0.2,0.5-0.1,1.2,0.7,1.4c-0.3-0.6,0.4-1.2,1.1-0.9C-1801.9-2767.8-1802-2768.5-1802.6-2768.7
							L-1802.6-2768.7z"/>
						<path id="path4215-3_1_" class="st21" d="M-1774.3-2805.9c-0.3,1-0.5,1-0.8,0s-0.1-1.6-0.9-2.5c0.2-0.2,0.4-0.1,0.6-0.1
							c-0.5-0.4-0.8-0.9-1-1.3c0.7,0.4,1.2,0.2,1.4-0.7c-0.2,0.3-0.5,0.4-0.9,0.3c-0.4-0.3-0.5-0.7-0.5-1.1c0.1-0.7,0-1-0.2-1.7
							c0.3-0.1,0.3-0.1,0.6,0c-0.2-0.2-0.9-0.6-1.2-0.9c0-0.6-0.4-1.2-0.7-1.7c0.5,0,0.5,0.3,0.8,0.3c-0.5-0.9-1.4-1.8-2.5-2.4
							c0.5-0.2,0.7-0.4,0.8-0.7c-0.3,0.1-1.1,0.4-1.5,0.4c-1.3,0.1-1.5,0-2.8-0.2c-1.2,0-1.9,0.1-2.8,0.9l0.7,0.7l1.1,1.7
							c0.4,0.1,2.3,0,1.8,1.1l-0.5,0.6c2,0,0.7,3.4-1,2.4c0.4,0.9,1,1.2,1.6,1c-0.2,0.2-0.3,0.6-0.2,1c-0.3,0.3-0.5,0.6-0.5,0.9
							c0,0.1-0.2,0.2-0.6,0.1c0.3,0.3,0.7,0.4,1,0.2c0.2-0.1,0.3-0.2,0.4-0.3c-0.5,0.4-2,2.4-1.9,3.1c0,0.3,0,0.6,0,0.9
							c-0.1,0.5-0.3,0.9-0.6,1.1c0.4,0,0.8,0,1-0.2s0.4-0.4,0.4-0.8c0,0.3-0.1,0.7-0.2,1c0,0,0,0.1-0.1,0.1
							c-0.2,0.4-0.8,0.9-0.6,1.4c0.1-0.1,0.3-0.2,0.4-0.3s0.2-0.2,0.3-0.3c-0.1,0.2-0.1,0.4-0.2,0.6c-0.1,0.6,0.1,1.2,0.4,1.8
							c0.1-0.1,0.2-0.1,0.2-0.2c0.1-0.2,0.2-0.4,0.2-0.6c-0.1,0.4,0,0.8,0.1,1.2c-1,1.6-0.2,2.5,0.4,4.7c0.6,2,1.7,4.9,2.1,8.6
							c-1.8,0.6-1.6,2-2.7,3.8c-1.1,0.8-2,2.4-2.8,3.3c-0.6,0.7-1.2,1.4-2,2c-0.4,0.3-0.7,0.5-1.1,0.7c-0.9,0.3-1.8,0.5-3.1-0.2
							c0.6,0.7,1.3,1.3,2.3,1.4c-0.3,0.3-0.5,0.6-0.5,0.8c0.7,0,1.4-0.2,2-0.6c-0.6,0.4-0.9,0.9-1.3,1.3c0.9,0.2,1.6-0.2,2.7-1
							c-0.2,0.3-0.8,1.7-0.8,2.1c0.3-0.2,0.8-1.1,1.4-1.2c-0.3,0.6-0.5,1.6-0.3,2.3c1.1-2.3,4.6-3.2,6.3-5.4c0,0.4-0.1,0.7-0.4,1.1
							c0.5-0.3,1-0.8,1.3-1.4c1-0.1,0.8-0.3,1.5-0.9c-0.5,4-0.5,5.4-4.5,7.7c-0.6-0.6-1.4-0.4-2.3-0.2c0.6,0,1.2,0,1.6,0.5l-1.7,0.9
							c-0.8-0.7-1.9-0.8-3-0.8c0.8,0.4,1.9,0.4,2.1,1.4c-3.2,1.8-6.6,3.3-8,7.2c-1,0.9-1.8-0.6-2.3-1.2c0.5,1.3,1,2.8,2.6,2.7
							c1.6,2.3,4,1.7,5.2-0.5c0.7-0.4,1.5-0.2,2.3-0.2c-0.6-0.2-1.2-0.4-2-0.4c0.7-0.5,1.2-1.1,1.5-1.9c-0.7,0.4-1.3,0.7-2,1.4
							c0.1-0.5-0.4-1-0.6-1.5c-0.1,0.6,0.2,1.3,0.1,1.8c-2.5,4.4-6.2-1.3,0.2-3.9l0.4,1.6c0.5-1.3,1.1-2.4,3-3.3
							c-0.1,1.1,0.2,2,0.7,2.7c-0.1-1-0.3-2.1,0.3-3.1l4.5-2.6c0.4,0.5,0.1,1-0.1,1.5c0.7-0.5,1.2-1.1,1.2-2c0.7-0.5,1-0.6,1.4-1.1
							c-0.3,2.2-0.1,3.1-1.7,3.7c-0.6-0.3-1.2-0.2-1.8,0c0.4,0.1,0.8,0,1,0.4c-1.3,0.8-4.9,2.3-3.5,4.4c0.8,0.7,1.3,0.3,1.8,0.2
							c-0.6,0-1.7-0.3-1.4-1.3c0.5-1,1.5-1.5,2.5-1.9l2.8-0.6c-1.3,1.8-1.7,3.5-4.1,4.9c-2.2,1.2-5.1,1.9-5.7,3.7s0.6,3.3,1.8,3.4
							c2.2-0.2,1.7-1.1,2.5-1.8c0.5-0.4,1.4-0.6,2-1c-0.8,0.1-1.6,0-2.4,0.4c0.1-1-0.4-1.3-0.8-1.7c0.1,0.7,0.4,1.4,0.1,2.1
							c-0.3,0.6-0.6,0.8-1,0.7c-1.4-0.2-1.2-1.8-1.1-1.9c0.8-1.7,2.6-1.5,3.9-2.4c0.2,0.7-0.2,1.4-0.3,2.1c0.8-0.7,1.5-1.7,1.8-2.6
							c-0.2,0.7,0,1.3,0.2,1.8c0.1-0.9,0.3-2.1,1.1-2.3c0.9-0.2,2.1-0.6,2.5-1.2l-0.2,1.8c-0.1,2.9-2,4.5-4.4,5.8
							c-0.7,0.3-1.1,0.1-1.6,0c0.1,0.3,0.7,0.7,1.2,0.5c-0.2,0.6-0.2,1.2,0.2,1.7c0.6,0.8,2.2,0.1,2.1-0.9c-1,1.5-2.2,0.4-1.5-0.8
							c0.7-0.7,1.9-0.7,2.4-1.3c0.5,0.5,0.1,1.3,0.1,1.9c0.5-0.8,0.8-1.6,0.5-2.3c0.8-0.7,1-1,1.5-1.6c0.3,3.1-1.6,4.4-1.5,5.5
							c0.3-0.3,1.2-1.2,1.9-1.2c-1.3,2.6-1.2,3.8,1.2,5.6l0,0c2.4-1.8,2.5-3,1.2-5.6c0.6,0,1.6,0.9,1.9,1.2c0.1-1.1-1.8-2.4-1.5-5.5
							c0.4,0.6,0.7,0.9,1.5,1.6c-0.3,0.8,0,1.5,0.5,2.3c0-0.6-0.4-1.4,0.1-1.9c0.6,0.6,1.7,0.6,2.4,1.3c0.7,1.2-0.5,2.3-1.5,0.8
							c-0.1,1.1,1.5,1.7,2.1,0.9c0.5-0.5,0.4-1.1,0.2-1.7c0.6,0.2,1.1-0.2,1.2-0.5c-0.4,0.1-0.9,0.3-1.6,0c-2.4-1.3-4.3-3-4.4-5.8
							l-0.2-1.8c0.4,0.6,1.5,1,2.5,1.2c0.8,0.1,1,1.4,1.1,2.3c0.2-0.6,0.4-1.2,0.2-1.8c0.3,0.9,1,1.9,1.8,2.6
							c-0.1-0.7-0.5-1.4-0.3-2.1c1.3,0.9,3.1,0.7,3.9,2.4c0.1,0.1,0.3,1.8-1.1,1.9c-0.4,0.1-0.8-0.1-1-0.7c-0.3-0.7,0-1.4,0.1-2.1
							c-0.4,0.4-0.9,0.7-0.8,1.7c-0.9-0.5-1.6-0.4-2.4-0.4c0.6,0.4,1.5,0.6,2,1c0.7,0.6,0.2,1.6,2.5,1.8c1.2-0.1,2.4-1.6,1.8-3.4
							c-0.6-1.9-3.5-2.5-5.7-3.7c-2.3-1.4-2.8-3.1-4.1-4.9l2.8,0.6c1,0.4,2.1,0.9,2.5,1.9c0.3,1-0.7,1.3-1.4,1.3
							c0.5,0.1,1,0.5,1.8-0.2c1.4-2.1-2.2-3.6-3.5-4.4c0.2-0.3,0.7-0.3,1-0.4c-0.6-0.2-1.2-0.3-1.8,0c-1.6-0.6-1.5-1.6-1.7-3.7
							c0.4,0.5,0.7,0.6,1.4,1.1c0,0.9,0.5,1.6,1.2,2c-0.2-0.5-0.4-1.1-0.1-1.5l4.5,2.6c0.6,1,0.4,2.1,0.3,3.1
							c0.6-0.7,0.9-1.6,0.7-2.7c1.9,0.8,2.5,2,3,3.3l0.4-1.6c6.5,2.6,2.7,8.3,0.2,3.9c-0.1-0.6,0.1-1.2,0.1-1.8
							c-0.2,0.5-0.7,1-0.6,1.5c-0.7-0.8-1.3-1-2-1.4c0.3,0.8,0.8,1.4,1.5,1.9c-0.8-0.1-1.3,0.1-2,0.4c0.8,0,1.6-0.2,2.3,0.2
							c1.2,2.2,3.6,2.7,5.2,0.5c1.7,0.1,2.1-1.3,2.6-2.7c-0.5,0.6-1.4,2.1-2.3,1.2c-1.4-3.9-4.8-5.4-8-7.2c0.2-1,1.3-1,2.1-1.4
							c-1.1,0-2.2,0.1-3,0.8l-1.7-0.9c0.4-0.5,1-0.5,1.6-0.5c-0.8-0.2-1.7-0.4-2.3,0.2c-3.9-2.3-4-3.7-4.5-7.7
							c0.4,0.7,1,0.6,1.5,0.9c0.3,0.6,0.8,1.1,1.3,1.4c-0.2-0.4-0.3-0.7-0.4-1.1c1.7,2.2,5.2,3.1,6.3,5.4c0.1-0.6,0-1.6-0.3-2.3
							c0.5,0.1,1.1,1,1.4,1.2c0-0.4-0.6-1.8-0.8-2.1c1,0.8,1.8,1.2,2.7,1c-0.4-0.4-0.7-0.9-1.3-1.3c0.7,0.4,1.3,0.6,2,0.6
							c0-0.3-0.2-0.5-0.5-0.8c1,0,1.8-0.6,2.3-1.4c-1.4,0.7-2.3,0.4-3.1,0.2c-0.4-0.2-0.7-0.4-1.1-0.7c-0.8-0.6-1.3-1.3-2-2
							c-0.8-0.8-1.7-2.5-2.8-3.3c-1.1-1.8-0.8-3.2-2.7-3.8c0.4-3.8,1.5-6.6,2.1-8.6c0.6-2.1,1.5-3.1,0.4-4.7
							c0.1-0.4,0.1-0.8,0.1-1.2c0,0.3,0.1,0.5,0.2,0.6s0.1,0.2,0.2,0.2c0.4-0.6,0.5-1.2,0.4-1.8c0-0.2-0.1-0.4-0.2-0.6
							c0.1,0.1,0.2,0.2,0.3,0.3c0.1,0.1,0.3,0.2,0.4,0.3c0.2-0.5-0.4-1-0.6-1.4c0,0,0-0.1-0.1-0.1c-0.2-0.3-0.2-0.7-0.2-1
							c0.1,0.4,0.2,0.6,0.4,0.8c0.2,0.2,0.6,0.3,1,0.2c-0.3-0.3-0.6-0.6-0.6-1.1c0-0.3-0.1-0.6,0-0.9c0.1-0.7-1.4-2.7-1.9-3.1
							c0.1,0.1,0.3,0.2,0.4,0.3c0.3,0.2,0.7,0.1,1-0.2c-0.3,0-0.5,0-0.6-0.1c0-0.3-0.2-0.6-0.5-0.9c0-0.4,0-0.7-0.2-1
							c0.6,0.3,1.2-0.1,1.6-1c-1.7,1-3-2.5-1-2.5l-0.5-0.6c-0.5-1.1,1.4-1,1.8-1.1l1.3-1.8l0.5-0.6c-0.9-0.8-1.1-0.9-2.3-0.9
							c-1.4,0.2-2.3,0.1-3.1,0.2c-0.4,0-1-0.1-1.3-0.2c0.1,0.3,0.4,0.3,0.8,0.5c-1.1,0.6-2.2,1.4-2.6,2.3c0.2,0,0.4-0.3,0.9-0.2
							c-0.3,0.5-0.9,1.2-1,1.8c-0.3,0.2-0.9,0.6-1.1,0.9c0.3-0.1,0.3-0.1,0.6,0c-0.3,0.7-0.3,1-0.2,1.7c0,0.5-0.1,0.9-0.5,1.1
							c-0.4,0.1-0.7,0-0.9-0.3c0.2,0.9,0.6,1.1,1.4,0.7c-0.2,0.5-0.6,0.9-1,1.3c0.2,0.1,0.4-0.1,0.6,0.1
							C-1774.3-2807.4-1774-2806.8-1774.3-2805.9L-1774.3-2805.9L-1774.3-2805.9z"/>
						<path id="path4489-1_1_" class="st21" d="M-1778.5-2778.2L-1778.5-2778.2L-1778.5-2778.2z"/>
						<path id="path4523-7_1_" class="st21" d="M-1782.3-2798.2L-1782.3-2798.2L-1782.3-2798.2z"/>
						<path id="path4529-0_1_" class="st21" d="M-1780.9-2791.7L-1780.9-2791.7L-1780.9-2791.7z"/>
						<path id="path4390-5_1_" class="st21" d="M-1771-2779.7c-0.1,0.3,0.1,0.6,0.6,1C-1770.9-2779.1-1771.1-2779.4-1771-2779.7z"/>
						<path id="path4394-7_1_" class="st21" d="M-1770.9-2778.2L-1770.9-2778.2L-1770.9-2778.2z"/>
						<path id="path4402-9_1_" class="st21" d="M-1767.2-2798.2L-1767.2-2798.2L-1767.2-2798.2z"/>
						<path id="path4404-3_1_" class="st21" d="M-1769.6-2789.1L-1769.6-2789.1L-1769.6-2789.1z"/>
						<path id="path4406-0_1_" class="st21" d="M-1768.5-2791.7L-1768.5-2791.7L-1768.5-2791.7z"/>
						<path id="path7068-6_1_" class="st22" d="M-1771.4-2815.8L-1771.4-2815.8L-1771.4-2815.8z"/>
						<path id="path7082-6_1_" class="st22" d="M-1779.2-2804.4L-1779.2-2804.4L-1779.2-2804.4z"/>
						<path id="path7084-6_1_" class="st22" d="M-1779-2807.6L-1779-2807.6L-1779-2807.6z"/>
						<path id="path7096-9_1_" class="st22" d="M-1777.6-2811.3L-1777.6-2811.3L-1777.6-2811.3z"/>
						<path id="path7098-1_1_" class="st22" d="M-1780.6-2808.9L-1780.6-2808.9L-1780.6-2808.9z"/>
						<path id="path7100-6_1_" class="st22" d="M-1780.6-2812.7L-1780.6-2812.7L-1780.6-2812.7z"/>
						<path id="path7102-2_1_" class="st22" d="M-1778-2815.8L-1778-2815.8L-1778-2815.8z"/>
						<path id="path7204-7_1_" class="st21" d="M-1785.7-2817.4c-1.2,0.1-3.2,1.3-1.6,2.3c0-0.2,0-0.3,0.1-0.5s0.3-0.3,0.5-0.3
							c0.4-0.1,0.9,0.2,1.5,0.6c0.5,0.4,1.5,0.4,2.2,0.5C-1782.7-2815.4-1785-2816.3-1785.7-2817.4L-1785.7-2817.4L-1785.7-2817.4
							L-1785.7-2817.4z"/>
						<path id="path29377-1_1_" class="st3" d="M-1782.9-2814c-0.7,0-1.2,0.5-1.7,0.7s-1.1,0.3-1.5,0.2c0.1,0.3,0.2,0.5,0.5,0.7
							c0.3,0.1,0.7,0,1-0.1l0.8-0.3c0.3-0.1,0.6-0.2,0.9-0.3l0.6-0.8c0-0.1,0-0.1-0.2-0.1C-1782.6-2814-1782.8-2814-1782.9-2814z"/>
					</g>
					<path id="path64764-5_2_" class="st23" d="M710.2-147.6c0,0,0.3-0.1,0.4-0.2c0.2-0.1,0.5-0.2,0.5-0.2l0.4-0.2
						c1.8-0.8,3.2-1.5,4.3-2.1s2-1.3,2.8-2.1c1.8-1.6,2.6-3.1,2.9-6c0-0.4,0.1-1.7,0.1-3c0.1-2.4,0.1-11.2,0-11.2
						c0,0-0.2,0.1-0.2,0.2c-0.2,0.2-1,0.6-1.5,0.8c-0.6,0.2-1.6,0.5-2.3,0.6c-0.9,0.2-2.6,0.2-3.5,0c-1.5-0.3-2.8-0.6-3.5-1.1
						l-0.6-0.4"/>
					<g>
						<path id="path2201-2_2_" class="st0" d="M716.4-160.5l0.5-0.6l-5.1-8.4l-0.8-0.6l0.3,1.1L716.4-160.5z"/>
						<path id="path26736-3_2_" class="st0" d="M710.2-164.5c1-0.2,1.3,0.5,1.5,1.4c0,0.1,0,0.3,0.1,0.4l-0.7,1.9
							c-0.2,0.4-0.4,0.8-0.7,1.1c0-0.5-0.1-0.7-0.2-1.1L710.2-164.5z"/>
						<path id="path5796-9-2_2_" class="st0" d="M716.5-160.9l0.5-0.4c0,0.1,0,0.2-0.1,0.3c-0.1,0.4,0.6,1.6,1,2.5
							c0.1,0.2,0.2,0.2,0,0.4s-0.4,0.2-0.5-0.1c-0.4-0.7-0.8-2-1.1-1.9c-0.1,0-0.1,0.1-0.2,0L716.5-160.9z"/>
						<path id="path34841-7_2_" class="st0" d="M717.6-161.9c0.1,0,0.1,0,0.2,0.1c0.1,0.2,0,0.4-0.1,0.6c-0.1,0.2-0.3,0.1-0.4,0
							c0,0,0,0,0-0.1c0,0-0.1-0.1-0.1,0l0,0l-0.4,0.5c0,0,0,0,0,0.1v0.3h-0.2l0,0l-0.7,0.9c-0.1,0.2-0.3,0.1-0.4,0
							c-0.1-0.2,0-0.4,0.1-0.6c0.1-0.2,0.3-0.1,0.4,0c0,0,0,0,0,0.1c0,0,0.1,0.1,0.1,0l0,0l0.4-0.5c0,0,0,0,0-0.1v-0.3h0.2l0,0
							l0.7-0.9l0,0C717.5-161.9,717.5-161.9,717.6-161.9L717.6-161.9L717.6-161.9z"/>
						<path id="path5806-8-0_2_" class="st0" d="M717.2-161.1h0.3l0,0l0,0l0,0l0,0l0,0l0,0v0.1c0,0,0,0,0,0.1l0,0l0,0l0,0v0.1l0,0
							l0,0l0.2,0.1v0.1l0,0c0,0.1,0,0.2,0,0.3v0.1h0.1v0.1l0,0c0,0,0,0,0,0.1l0,0c0,0,0,0,0,0.1l0,0c0,0,0,0.1-0.1,0.2l0,0v0.1l0,0
							l0,0l0,0l0,0l0,0v0.1l0,0c0,0,0,0.1,0,0.2l0,0l0,0l0,0l0,0v0.1l0,0l-0.1,0.1l0,0l0,0l0,0l0,0l0,0c-0.1,0.1-0.2,0.2-0.3,0l0,0
							l0,0l0,0v-0.1v-0.1l0,0v-0.1h-0.1c-0.1,0-0.2,0-0.2-0.1l0,0v-0.1l0,0c0,0,0,0,0-0.1v-0.1l-0.1-0.1c0,0,0,0,0-0.1v-0.1l0,0l0,0
							v-0.1v-0.1l0,0c0,0,0-0.1,0-0.2l0,0l0.1-0.2h-0.1c-0.1,0-0.1,0-0.1,0s-0.1,0-0.1-0.1c0,0.2,0.1,0,0,0.2c0,0.1,0,0.1,0,0.1l0,0
							v0.2l0,0c0,0,0,0,0,0.1s0,0.1,0,0.2c0,0.1,0,0.1,0,0.1v0.1c0,0.1,0.3,0.6,0.3,0.7c-0.1,0.4-0.3,0.5-0.5,0.6l-0.4,0.3
							c-0.2,0.1-0.3,0.2-0.4-0.1c-0.2-0.2-0.2-0.9,0.1-1.5c0,0,0.1,0,0.1-0.1c0-0.4,0.2-0.7,0.3-1c0,0,0,0,0-0.1l0,0v-0.1l0,0l0,0
							l0,0l0,0l0,0c0,0,0,0,0.1,0l0,0l0,0c0,0,0-0.1,0.1-0.1v-0.1l0,0l0,0h0.1l0,0l0,0l0,0l0,0L717.2-161.1L717.2-161.1z"/>
						<path id="path10992-1_2_" class="st0" d="M711.9-162.6c0.3,0.3,0.3,1.5,0.7,2.1l-0.1,0.1c0.1,0.2,0.1,0.4,0.2,0.6
							c0,0,0,0,0,0.1v-0.1c0.1,0,0.1,0,0.1,0c0.1,0.1,0,0.2,0,0.3s0.1,0.3,0.1,0.4c0.1,0,0.2,0,0.3,0.1c0.1,0.2,0.2,0.8,0.2,1.3l0,0
							c0,0,0,0,0,0.1l0,0c0.1-0.3,0.2-0.5,0.4-0.7c0-0.1,0.1-0.1,0.1-0.1l0,0l0,0l0,0c0.1,0,0.2,0.1,0.3,0.3
							c0.7-0.3,1.5-0.5,1.8-0.9c0-0.1,0.1-0.1,0.1-0.1c-0.2,0.4-0.1,1.3,0.2,1.6l0.1,0.1c0,0,0,0,0.1,0c-0.1,0,0,0-0.1,0
							c-0.1,0.1-0.3,0.2-0.5,0.3c-0.3,0.3-0.6,0.7-1,1c-0.1,0.1-0.3,0.2-0.4,0.4c0,0.4-0.1,0.7-0.2,0.7c-0.2,0.1-0.6,0-0.8-0.1
							c-0.2,0.2-0.4,0.2-0.7,0.2c0,0.1,0,0.1-0.1,0.1c0,0,0,0,0-0.1c-0.2-0.2-0.3-0.6-0.5-0.9l0,0c-0.2-0.1-0.7-0.6-0.7-0.9
							c0-0.1,0-0.3,0-0.4c-0.1-0.1-0.2-0.3-0.2-0.4c-0.1,0-0.1,0-0.2-0.1c0-0.1,0-0.1,0-0.3c-0.1-0.3-0.2-0.5-0.3-0.8
							c0,0.1,0,0.2-0.1,0.2l0,0l0,0l0,0l0,0l0,0c-0.1,0.1-0.2,0-0.3-0.2c0-0.2,0-0.4,0.1-0.5h0.1c0-0.1-0.1,0-0.3-0.4
							c0.7-0.9,1-2,1.4-3.1C711.8-162.7,711.8-162.7,711.9-162.6L711.9-162.6z"/>
						<path id="path2210-7_2_" class="st0" d="M718.4-158.4c-0.2-0.3-0.5-0.4-0.7-0.2s-0.3,0.7-0.1,1s0.5,0.4,0.7,0.2
							C718.5-157.6,718.6-158,718.4-158.4L718.4-158.4L718.4-158.4z"/>
					</g>
				</g>
				<g>
					<path class="st0" d="M131.9,87.7c0.3,0.4,0.7,0.9,1,1.4s0.6,0.9,1.2,1.1c0,0,0,0,0,0.1c-0.1,0-0.1,0.1-0.2,0.1
						c-0.2,0-0.5,0-0.7,0c-0.3,0-0.6-0.2-0.8-0.5c-0.4-0.7-0.9-1.3-1.3-2c-0.2-0.3-0.2-0.4,0.2-0.4c0.8-0.1,1.3-0.7,1.1-1.5
						c0-0.2-0.2-0.4-0.3-0.5c-0.3-0.3-1-0.4-1.4-0.3c0,0.1,0,0.1,0,0.2c0,1.2,0,2.4,0,3.7c0,0.1,0,0.2,0,0.4
						c0.1,0.4,0.1,0.5,0.5,0.5c0.1,0,0.2,0,0.2,0.2c0,0.1-0.2,0.1-0.2,0.1c-0.6,0-1.2,0-1.8,0c-0.1,0-0.2-0.1-0.2-0.1
						c0-0.1,0.1-0.2,0.2-0.2c0.4-0.1,0.5-0.2,0.5-0.6c0-1.2,0-2.4,0-3.7c0-0.5-0.1-0.5-0.5-0.6c-0.1,0-0.2-0.1-0.2-0.2
						c0-0.2,0.1-0.1,0.2-0.1c0.7,0,1.3,0,2,0c0.3,0,0.7,0.1,1,0.2c0.5,0.2,0.8,0.5,0.9,1.1c0.1,0.6-0.1,1.1-0.6,1.4
						C132.4,87.5,132.2,87.6,131.9,87.7z"/>
					<path class="st0" d="M142.7,87.3c0-0.6,0-1.2,0-1.8c0-0.3-0.1-0.4-0.4-0.4c-0.1,0-0.1,0-0.1,0c-0.1-0.1-0.1-0.1-0.1-0.2
						c0.1,0,0.1-0.1,0.2-0.1c0.5,0,1.1,0,1.6,0c0.1,0,0.1,0.1,0.2,0.1c0,0.1-0.1,0.1-0.1,0.2h-0.1c-0.2,0-0.3,0.2-0.3,0.4
						c0,0.3,0,0.5,0,0.8c0,0.8,0,1.5,0,2.3c0,1-0.4,1.5-1.4,1.7c-0.5,0.1-1,0.1-1.4,0c-0.9-0.2-1.4-0.8-1.4-1.8c0-0.8,0-1.5,0-2.3
						c0-0.3,0-0.5,0-0.8c0-0.2-0.1-0.3-0.3-0.4c-0.1,0-0.1,0-0.2,0c-0.1,0-0.1-0.1-0.2-0.2c0.1,0,0.1-0.1,0.2-0.1c0.6,0,1.2,0,1.8,0
						c0.1,0,0.1,0.1,0.2,0.1c0,0.1-0.1,0.1-0.2,0.2c0,0-0.1,0-0.2,0c-0.2,0-0.3,0.1-0.3,0.3c0,0.1,0,0.3,0,0.4c0,0.9,0,1.7,0,2.6
						c0,0.2,0,0.4,0.1,0.7c0.1,0.4,0.4,0.6,0.7,0.7c0.5,0.2,1,0.1,1.5-0.1c0.4-0.2,0.6-0.5,0.6-0.9
						C142.7,88.2,142.7,87.7,142.7,87.3L142.7,87.3z"/>
					<path class="st0" d="M135.8,87.6c0,0.6,0,1.2,0,1.8c0,0.2,0.1,0.3,0.3,0.4c0.2,0,0.3,0.1,0.5,0.1c0.1,0,0.1,0.1,0.2,0.2
						c-0.1,0-0.1,0.1-0.2,0.1c-0.7,0-1.5,0-2.2,0c-0.1,0-0.1-0.1-0.2-0.1c0.1-0.1,0.1-0.1,0.2-0.2c0.1,0,0.1,0,0.2-0.1
						c0.2,0,0.3-0.2,0.3-0.4c0-0.3,0-0.7,0-1c0-1,0-2,0-3c0-0.3-0.1-0.4-0.4-0.5c-0.1,0-0.1,0-0.1,0s-0.1-0.1-0.1-0.2
						c0,0,0.1-0.1,0.2-0.1c0.2,0,0.5,0,0.7,0c0.9,0,1.8,0,2.7,0c0.3,0,0.3,0.1,0.3,0.3c0,0.3,0,0.6,0,0.9c0,0.1-0.1,0.2-0.1,0.2
						c-0.1-0.1-0.1-0.1-0.2-0.2c0-0.1,0-0.2-0.1-0.3c-0.1-0.4-0.3-0.5-0.7-0.6c-0.4,0-0.7,0-1.1,0c-0.2,0-0.2,0-0.2,0.2
						c0,0.5,0,1.1,0,1.6c0,0.1,0,0.2,0.1,0.2c0.3,0,0.6,0,1,0c0.3,0,0.4-0.2,0.5-0.4v-0.1c0-0.1,0.1-0.1,0.2-0.1
						c0,0.1,0.1,0.1,0.1,0.2c0,0.2,0,0.3,0,0.5c0,0.3,0,0.6,0,0.9c0,0.1-0.1,0.2-0.1,0.2c-0.1-0.1-0.2-0.1-0.2-0.2
						c-0.1-0.4-0.2-0.5-0.6-0.5C136.4,87.6,136.1,87.6,135.8,87.6z"/>
					<path class="st0" d="M126.9,87.4c0-0.6,0-1.2,0-1.9c0-0.4-0.1-0.5-0.5-0.6h-0.1c0,0-0.1-0.1-0.1-0.2c0,0,0.1-0.1,0.2-0.1
						c0.6,0,1.3,0,1.9,0l0.1,0.1c0,0.1-0.1,0.1-0.1,0.2l0,0c-0.4,0-0.5,0.3-0.5,0.6c0,0.3,0,0.5,0,0.8c0,0.9,0,1.7,0,2.6
						c0,0.1,0,0.2,0,0.3c0.1,0.4,0.1,0.5,0.5,0.6c0.1,0,0.1,0.1,0.2,0.2c-0.1,0-0.1,0.1-0.2,0.1c-0.6,0-1.2,0-1.9,0
						c-0.1,0-0.2-0.1-0.2-0.1c0.1-0.1,0.1-0.1,0.2-0.2c0.4-0.1,0.5-0.2,0.5-0.6C126.9,88.7,126.9,88,126.9,87.4L126.9,87.4z"/>
					<path class="st0" d="M140.9,72.8c-0.7,0.9-1.6,1.3-2.7,1.6c-0.4,0.1-0.6,0.3-0.9,0.6c-0.5,0.6-0.7,1.2-0.8,1.9
						c-0.2,1.4-0.1,2.9,0.2,4.3c0.1,0.5,0.2,1,0.3,1.4c0,0.2,0,0.2-0.2,0.2c-1.3,0-2.6,0-3.9,0c-0.1,0-0.1,0-0.2,0
						c0.1-0.1,0.1-0.2,0.1-0.3c0.6-1,1.1-2.1,1.3-3.4c0.3-2-0.2-3.7-1.4-5.2c-0.4-0.5-0.9-1-1.5-1.3c-0.5-0.3-1-0.7-1.5-1
						c0.1,0.5,0.3,1,0.4,1.5c0.1,0.7,0.1,1.3-0.2,1.9s-0.7,0.8-1.4,0.7c-0.4-0.1-0.8-0.3-1.1-0.6c-0.2-0.2-0.4-0.2-0.6-0.2
						c-0.5,0-0.9,0-1.3-0.3c-0.5-0.3-0.7-0.7-0.6-1.2c0.2-0.8,0.7-1.5,1.3-2c0.1-0.1,0.2-0.2,0.4-0.3c0,0,0,0,0-0.1
						c-0.1,0-0.2,0-0.2,0.1c-0.7,0.2-1.5,0.4-2.2,0.3c-0.3-0.1-0.7-0.2-1-0.3c-0.5-0.2-0.6-0.7-0.4-1.3c0.1-0.4,0.3-0.8,0.6-1.1
						c0.2-0.2,0.2-0.4,0.2-0.6c0-0.5,0-1,0.3-1.4c0.3-0.5,0.7-0.7,1.2-0.6c0.8,0.2,1.4,0.7,1.9,1.3c0.2,0.3,0.4,0.5,0.7,0.8
						c0-0.2-0.1-0.4-0.1-0.6c-0.1-0.7-0.2-1.4,0.1-2.1s0.7-1,1.5-0.8c0.4,0.1,0.7,0.3,1.1,0.6c0.2,0.2,0.4,0.2,0.6,0.1
						c1-0.5,2-0.6,3.1-0.6c0.1,0,0.2,0,0.3,0c0-0.6-0.1-1.2-0.1-1.9c-0.1,0.1-0.2,0.1-0.2,0.2c-0.5,0.7-1.3,1-2.1,1.2
						c-0.6,0.2-1.2,0.2-1.8,0.1c-0.7-0.1-1-0.6-0.9-1.3c0-0.4,0.1-0.8,0.3-1.1c0.1-0.2,0.1-0.4,0.1-0.7c-0.2-0.5-0.2-1,0-1.5
						s0.5-0.7,1-0.8c0.7,0,1.3,0.2,1.9,0.6c0.2,0.1,0.4,0.3,0.7,0.5c0,0,0.1,0.1,0.2,0.1c-0.1-0.1-0.1-0.2-0.1-0.2
						c-0.4-0.7-0.7-1.4-0.8-2.2c0-0.4,0-0.8,0.1-1.1c0.1-0.5,0.6-0.7,1.1-0.6c0.4,0,0.8,0.1,1.2,0.3c0.2,0.1,0.4,0.1,0.7,0.1
						c0.4-0.1,0.9-0.2,1.3-0.1c0.6,0.1,0.9,0.5,0.9,1.2c0,0.5-0.1,1-0.4,1.4c-0.3,0.5-0.6,0.9-1,1.4c0,0.1-0.1,0.1-0.1,0.2
						c0.1,0,0.2-0.1,0.3-0.1c0.6-0.3,1.2-0.5,1.9-0.5c0.3,0,0.5,0,0.8,0.1c0.6,0.1,0.9,0.7,0.8,1.4c-0.1,0.3-0.2,0.7-0.3,1
						c-0.1,0.2-0.1,0.4-0.1,0.6c0.1,0.5,0.2,0.9,0.1,1.4c-0.1,0.6-0.5,0.9-1.1,0.9c-0.8,0-1.5-0.3-2.1-0.8c-0.5-0.4-0.9-0.8-1.2-1.3
						c0-0.1-0.1-0.1-0.1-0.1s0,0-0.1-0.1c0,0.1-0.1,0.2-0.1,0.3c0,0.5,0.1,1,0.1,1.5c0,0.1,0.1,0.1,0.2,0.2c1.4,0.2,2.6,0.7,3.7,1.5
						c0,0,0,0,0.1,0c0.1-0.1,0.2-0.2,0.3-0.4c0.2-0.4,0.6-0.7,1-0.8c0.5-0.2,0.9-0.2,1.3,0.3c0.4,0.5,0.6,1,0.7,1.6
						c0.1,0.3,0.1,0.7,0.1,1.1c0,0,0,0.1,0.1,0.2c0-0.1,0.1-0.1,0.1-0.2c0.2-0.7,0.5-1.3,1-1.8c0.3-0.3,0.6-0.5,0.9-0.7
						c0.4-0.2,0.8-0.2,1.2,0.2c0.4,0.4,0.6,0.8,0.7,1.3c0,0.2,0.2,0.4,0.4,0.5c0.4,0.2,0.7,0.6,0.9,1c0.3,0.6,0.2,1-0.3,1.4
						c-0.5,0.5-1.1,0.7-1.8,0.7c-0.5,0.1-0.9,0.1-1.4,0.1c0.1,0.1,0.2,0.1,0.2,0.1c0.5,0.3,0.9,0.5,1.3,0.8c0.4,0.2,0.6,0.6,0.8,1
						s0.1,0.8-0.2,1.1c-0.4,0.4-0.8,0.6-1.3,0.7c-0.3,0.1-0.5,0.2-0.6,0.4c-0.3,0.4-0.6,0.7-1.1,0.9c-0.5,0.2-0.9,0.1-1.2-0.3
						c-0.4-0.4-0.6-0.9-0.7-1.5C141,73.8,141,73.3,140.9,72.8z M133.9,68.5c0,0.1-0.1,0.1-0.2,0.1c-0.1,0-0.1-0.1-0.1-0.2
						s0-0.1,0-0.2c0-0.2-0.1-0.2-0.2-0.3c-0.9-0.2-1.7-0.3-2.6-0.3c-0.3,0-0.6,0.1-0.9,0.2c-0.3,0.1-0.4,0.3-0.5,0.6
						c-0.1,1,0.2,1.8,0.9,2.5c1.7,1.4,3.6,2.3,5.8,2.6c0.8,0.1,1.7,0,2.5-0.3c0.5-0.2,1-0.4,1.3-0.9s0.3-0.9-0.1-1.3
						c-0.6-0.6-1.3-1.1-2-1.5c-0.6-0.3-1.2-0.6-1.9-0.9c-0.1,0.2-0.1,0.4-0.2,0.5c0,0.1-0.1,0.1-0.2,0.2c-0.1-0.1-0.1-0.1-0.2-0.2
						c0-0.2,0-0.4-0.1-0.6c-0.4-0.2-0.4-0.2-0.5,0.3c0,0.1-0.1,0.1-0.2,0.2c-0.1-0.1-0.1-0.1-0.2-0.2v-0.1c0-0.4,0-0.4-0.4-0.5
						c0,0,0,0-0.1,0C134,68.3,134,68.4,133.9,68.5z M135.8,68.1c0.2-0.1,0.4,0,0.4,0.1c0,0.2,0.1,0.2,0.2,0.3
						c0.9,0.4,1.8,0.8,2.5,1.4c0.4,0.3,0.8,0.7,1.2,1.1c0.1,0.1,0.2,0.1,0.3,0.1c0-0.1,0.1-0.2,0.1-0.3c-0.1-0.8-0.5-1.5-1-2.2
						c-1.1-1.5-2.6-2.4-4.5-2.7c-1.5-0.3-3-0.2-4.4,0.6c-0.3,0.1-0.5,0.3-0.7,0.5c-0.1,0.1-0.1,0.2-0.1,0.3c0,0.1,0.2,0.1,0.3,0.1
						s0.1,0,0.2,0c0.3,0,0.6-0.1,0.8,0c0.8,0.1,1.6,0.2,2.4,0.3c0.1,0,0.2,0,0.2-0.1c0.1-0.1,0.2-0.2,0.4-0.2c0.1,0,0.2,0,0.2,0.1
						s0,0.2,0,0.2s0,0.1-0.1,0.1c0.2,0.1,0.4,0.1,0.6,0c0.1-0.1,0.2-0.1,0.3,0c0.1,0,0.1,0.2,0.1,0.3
						C135.5,68.2,135.5,68.2,135.8,68.1z M133.6,74c0.2,0.3,0.4,0.6,0.6,0.9c0.5,1.1,0.6,2.3,0.6,3.5c0,0.8-0.1,1.5-0.1,2.4
						c0.2-0.4,0.4-0.7,0.5-1.1c0.5-1.4,0.6-2.9,0.5-4.3c0-0.3-0.1-0.5-0.2-0.8c0-0.2-0.2-0.2-0.4-0.3c-0.5-0.1-0.9-0.3-1.4-0.4
						c-0.1,0-0.2-0.1-0.3-0.1C133.6,73.9,133.6,73.9,133.6,74z"/>
				</g>
			</g>
		</g>
	</g>
	<g>
		<path class="st24" d="M182.5,50.4c0,0,9.1,76.1-49,88.5c-58-12.4-49-88.5-49-88.5S117.4,19.8,173,9C173,9,180.4,26.8,182.5,50.4z"
			/>
	</g>
</g>
<image style="overflow:visible;enable-background:new    ;" width="640" height="649" xlink:href="img/joe-schmidt.png"  transform="matrix(0.1823 0 0 0.1823 221.0634 14.8491)">
</image>
</svg>
