<?xml version="1.0" encoding="utf-8"?>
<!-- Generator: Adobe Illustrator 23.0.5, SVG Export Plug-In . SVG Version: 6.00 Build 0)  -->
<svg version="1.1" id="Layer_1" xmlns="http://www.w3.org/2000/svg" xmlns:xlink="http://www.w3.org/1999/xlink" x="0px" y="0px"
	 viewBox="0 0 425 179" style="enable-background:new 0 0 425 179;" xml:space="preserve">
<style type="text/css">
	.st0{fill:#FFFFFF;}
	.st1{font-family:'Arial-BoldMT';}
	.st2{font-size:12px;}
	.st3{fill:#24B865;}
	.st4{clip-path:url(#SVGID_3_);fill:#FFFFFF;}
	.st5{fill:none;stroke:#FFFFFF;stroke-width:1.25;stroke-linecap:round;stroke-linejoin:round;stroke-miterlimit:10;}
</style>
<text transform="matrix(1 0 0 1 254.7026 155.2148)" class="st0 st1 st2">COACH:</text>
<text transform="matrix(1 0 0 1 224.2026 169.6148)" class="st0 st1 st2">EDDIE JONES (AU)</text>
<text transform="matrix(1 0 0 1 110.3799 155.2156)" class="st0 st1 st2">ENGLAND</text>
<g>
	<g>
		<path id="SVGID_1_" class="st3" d="M186.5,50.4c0,0,9.1,76.1-49,88.5c-58-12.4-49-88.5-49-88.5S121.4,19.8,177,9
			C177,9,184.4,26.8,186.5,50.4z"/>
	</g>
	<g>
		<g>
			<defs>
				<path id="SVGID_2_" d="M186.5,50.4c0,0,9.1,76.1-49,88.5c-58-12.4-49-88.5-49-88.5S121.4,19.8,177,9
					C177,9,184.4,26.8,186.5,50.4z"/>
			</defs>
			<clipPath id="SVGID_3_">
				<use xlink:href="#SVGID_2_"  style="overflow:visible;"/>
			</clipPath>
			<polygon class="st4" points="190.2,60.4 150.9,60.4 150.9,2.6 124.3,2.6 124.3,60.4 84.9,60.4 84.9,87 124.3,87 124.3,144.8 
				150.9,144.8 150.9,87 190.2,87 			"/>
		</g>
	</g>
	<g>
		<path class="st5" d="M186.5,50.4c0,0,9.1,76.1-49,88.5c-58-12.4-49-88.5-49-88.5S121.4,19.8,177,9C177,9,184.4,26.8,186.5,50.4z"
			/>
	</g>
</g>
<image style="overflow:visible;enable-background:new    ;" width="640" height="649" xlink:href="img/eddie-jones-eng.png"  transform="matrix(0.1823 0 0 0.1823 225.0634 14.7614)">
</image>
</svg>
