<?xml version="1.0" encoding="utf-8"?>
<!-- Generator: Adobe Illustrator 23.0.5, SVG Export Plug-In . SVG Version: 6.00 Build 0)  -->
<svg version="1.1" id="MARCAS" xmlns="http://www.w3.org/2000/svg" xmlns:xlink="http://www.w3.org/1999/xlink" x="0px" y="0px"
	 viewBox="0 0 500 500" style="enable-background:new 0 0 500 500;" xml:space="preserve">
<style type="text/css">
	.st0{fill:#24B865;stroke:#FFFFFF;stroke-width:0.8577;}
	.st1{fill:#24B865;stroke:#FFFFFF;stroke-width:0.91;}
	.st2{fill:#24B865;stroke:#FFFFFF;stroke-width:0.9074;}
	.st3{enable-background:new    ;}
	.st4{fill:#FFFFFF;}
	.st5{font-family:'MyriadPro-Regular';}
	.st6{font-size:10.1765px;}
	.st7{font-family:'ArialHebrew-Light';}
	.st8{font-size:10.1764px;}
	.st9{fill:#24B865;stroke:#FFFFFF;stroke-width:0.6012;}
	.st10{fill:none;stroke:#FFFFFF;stroke-width:0.6012;}
</style>
<g id="CIRCULOS">
	<path class="st0" d="M337.7,104.9c-2.2,0-4,2-4,4.5c0,2.5,1.8,4.5,4,4.5c2.3,0,4.1-2.1,4.1-4.5
		C341.8,106.9,339.9,104.9,337.7,104.9"/>
	<path class="st1" d="M350.4,210.5c-2.3,0-4.3,2.1-4.3,4.9c0,2.7,1.9,4.9,4.3,4.9c2.3,0,4.3-2.2,4.3-4.9
		C354.6,212.6,352.7,210.5,350.4,210.5"/>
	<path class="st1" d="M296.8,298c-2.3,0-4.3,2.1-4.3,4.9c0,2.7,1.9,4.9,4.3,4.9s4.3-2.2,4.3-4.9C301,300.2,299.1,298,296.8,298"/>
	<path class="st0" d="M267.3,334.3c-2.2,0-4.1,2-4.1,4.5c0,2.5,1.8,4.5,4.1,4.5s4.1-2.1,4.1-4.5S269.5,334.3,267.3,334.3"/>
	<path class="st0" d="M250.7,327.3c-2.2,0-4.1,2-4.1,4.5c0,2.5,1.8,4.5,4.1,4.5c2.2,0,4.1-2.1,4.1-4.5
		C254.8,329.3,252.9,327.3,250.7,327.3"/>
	<path class="st0" d="M204.9,332.2c-2.2,0-4.1,2-4.1,4.5c0,2.5,1.8,4.5,4.1,4.5c2.2,0,4.1-2.1,4.1-4.5
		C208.9,334.2,207.1,332.2,204.9,332.2"/>
	<path class="st0" d="M215,337.2c-2.2,0-4,2-4,4.5c0,2.5,1.8,4.5,4,4.5c2.3,0,4.1-2.1,4.1-4.5C219,339.2,217.3,337.2,215,337.2"/>
	<path class="st0" d="M103.2,370.1c-2.2,0-4,2.1-4,4.5c0,2.5,1.8,4.5,4,4.5c2.3,0,4.1-2,4.1-4.5
		C107.3,372.1,105.4,370.1,103.2,370.1"/>
	<path class="st0" d="M112.9,387.4c-2.2,0-4,2-4,4.5c0,2.5,1.8,4.5,4,4.5c2.3,0,4.1-2.1,4.1-4.5C117,389.4,115.2,387.4,112.9,387.4"
		/>
	<path class="st0" d="M131.6,379.7c-2.2,0-4.1,2-4.1,4.5c0,2.5,1.8,4.5,4.1,4.5c2.2,0,4.1-2.1,4.1-4.5
		C135.7,381.7,133.8,379.7,131.6,379.7"/>
	<path id="CIRCLE2_1_" class="st0" d="M302.3,311.4c-2.2,0-4.1,2-4.1,4.5c0,2.5,1.8,4.5,4.1,4.5c2.2,0,4.1-2.1,4.1-4.5
		S304.5,311.4,302.3,311.4"/>
	<path id="CIRCLE_1_" class="st2" d="M299.2,308.7c-2.2,0-4.1,2-4.1,4.5c0,2.5,1.8,4.5,4.1,4.5c2.2,0,4.1-2,4.1-4.5
		S301.4,308.7,299.2,308.7"/>
</g>
<g id="NOMBRES">
	<text transform="matrix(0.8783 0 0 1 398.6162 211.1396)" class="st3"><tspan x="0" y="0" class="st4 st5 st6">Kamaishi</tspan><tspan x="38.3" y="0" class="st4 st7 st6"> </tspan><tspan x="41.1" y="0" class="st4 st5 st6">Recovery</tspan></text>
	<text transform="matrix(0.8783 0 0 1 398.6162 223.8604)" class="st3"><tspan x="0" y="0" class="st4 st5 st6">Memorial</tspan><tspan x="40.4" y="0" class="st4 st7 st6"> </tspan><tspan x="43.2" y="0" class="st4 st5 st6">Stadium</tspan></text>
	<text transform="matrix(0.8782 -1.545608e-02 1.357470e-02 0.9999 259.2153 202.7023)" class="st4 st5 st8">Kumagaya</text>
	<text transform="matrix(0.8782 -1.545608e-02 1.357470e-02 0.9999 248.0924 215.7955)" class="st3"><tspan x="0" y="0" class="st4 st7 st8"> </tspan><tspan x="2.8" y="0" class="st4 st5 st8">Rugby</tspan><tspan x="30.2" y="0" class="st4 st7 st8"> </tspan><tspan x="33" y="0" class="st4 st5 st8">Stadium</tspan></text>
	<text transform="matrix(0.8783 0 0 1 350.2217 313.8203)" class="st3"><tspan x="0" y="0" class="st4 st5 st6">Tokyo</tspan><tspan x="25.8" y="0" class="st4 st7 st6"> </tspan><tspan x="28.6" y="0" class="st4 st5 st6">Stadium</tspan></text>
	<text transform="matrix(0.8783 0 0 1 353.4688 362.499)" class="st3"><tspan x="0" y="0" class="st4 st5 st6">International</tspan><tspan x="54.7" y="0" class="st4 st7 st6"> </tspan></text>
	<text transform="matrix(0.8783 0 0 1 353.4688 375.2217)" class="st3"><tspan x="0" y="0" class="st4 st5 st6">Stadium</tspan><tspan x="35.5" y="0" class="st4 st7 st6"> </tspan><tspan x="38.3" y="0" class="st4 st5 st6">Yokohama</tspan></text>
	<text transform="matrix(0.8783 0 0 1 135.3794 293.2656)" class="st3"><tspan x="0" y="0" class="st4 st5 st6">Kobe</tspan><tspan x="22" y="0" class="st4 st7 st6"> </tspan><tspan x="24.8" y="0" class="st4 st5 st6">Misaki</tspan></text>
	<text transform="matrix(0.8783 0 0 1 147.8096 305.9863)" class="st4 st5 st6">Stadium</text>
	<text transform="matrix(0.8783 0 0 1 218.9023 233.8823)" class="st3"><tspan x="0" y="0" class="st4 st5 st6">City</tspan><tspan x="16.4" y="0" class="st4 st7 st6"> </tspan><tspan x="19.3" y="0" class="st4 st5 st6">of</tspan><tspan x="27.8" y="0" class="st4 st7 st6"> </tspan><tspan x="30.7" y="0" class="st4 st5 st6">Toyota</tspan></text>
	<text transform="matrix(0.8783 0 0 1 234.7881 246.6025)" class="st4 st5 st6">Stadium</text>
	<text transform="matrix(0.8783 0 0 1 17.3647 357.6855)" class="st4 st5 st6">Fukuoka</text>
	<text transform="matrix(0.8783 0 0 1 1 370.4072)" class="st4 st5 st6">Hakatanomori</text>
	<text transform="matrix(0.8783 0 0 1 17.3647 383.127)" class="st4 st5 st6">Stadium</text>
	<text transform="matrix(0.8783 0 0 1 39.9507 440.5557)" class="st4 st5 st6">Kumamoto</text>
	<text transform="matrix(0.8783 0 0 1 46.6304 453.2754)" class="st4 st5 st6">Stadium</text>
	<text transform="matrix(0.8783 0 0 1 240.5088 111.731)"><tspan x="0" y="0" class="st4 st5 st6">Sapporo</tspan><tspan x="36" y="0" class="st4 st7 st6"> </tspan><tspan x="38.8" y="0" class="st4 st5 st6">Dome</tspan></text>
	<text transform="matrix(0.8783 0 0 1 107.0513 467.2725)"><tspan x="0" y="0" class="st4 st5 st6">Oita</tspan><tspan x="17.7" y="0" class="st4 st7 st6"> </tspan><tspan x="20.5" y="0" class="st4 st5 st6">Stadium</tspan></text>
	<text transform="matrix(0.8783 0 0 1 197.4238 402.2881)" class="st4 st5 st6">Hanazono</text>
	<text transform="matrix(0.8783 0 0 1 209.4175 414.7627)" class="st4 st5 st6">Rugby</text>
	<text transform="matrix(0.8783 0 0 1 203.6411 427.7314)" class="st4 st5 st6">Stadium</text>
	<text transform="matrix(0.8783 0 0 1 253.0527 388.2939)" class="st3"><tspan x="0" y="0" class="st4 st5 st6">Shizuoka</tspan><tspan x="38.3" y="0" class="st4 st7 st6"> </tspan></text>
	<text transform="matrix(0.8783 0 0 1 253.0527 401.0176)" class="st4 st5 st6">Stadium</text>
</g>
<g id="LINEAS">
	<rect x="310.2" y="310.8" class="st9" width="35.8" height="0.8"/>
	<rect x="357.6" y="213.8" class="st9" width="34.4" height="0.8"/>
	<rect x="49.2" y="375" class="st9" width="48.3" height="0.8"/>
	<rect x="301.4" y="108.3" class="st9" width="29.6" height="0.8"/>
	<polygon class="st9" points="131.8,390.7 132,451.5 131.3,451.5 131.1,390.7 	"/>
	<g>
		<polygon class="st9" points="250.8,251.2 251,326.1 250.2,326.1 250,251.2 		"/>
	</g>
	<g>
		<polygon class="st9" points="215.3,348 215.6,392.9 214.8,392.9 214.6,348 		"/>
	</g>
	<g>
		<line class="st10" x1="238.6" y1="287.1" x2="238.6" y2="288"/>
	</g>
	<path class="st9" d="M108.4,392.2c-16-4.5-32.8,9.8-37.5,32l-0.9,0.3c4.9-23,22.3-37.9,38.9-33.1L108.4,392.2z"/>
	<path class="st9" d="M304,321.3c7.3,35.2,30.5,42.1,45,43.7l-0.1,1.2c-15-1.6-38.9-8.5-45.9-44.8L304,321.3z"/>
	<path class="st9" d="M203.8,332.1c1.8-16.7-8.4-32-22.8-34l0.1-1.2c15,2.2,25.6,18,23.7,35.3L203.8,332.1z"/>
	<g>
		<polygon class="st9" points="296.9,216.8 297.1,296.8 296.4,296.8 296.2,216.8 		"/>
	</g>
	<g>
		<polygon class="st9" points="266.9,344.7 267.2,375 266.4,375 266.2,344.7 		"/>
	</g>
</g>
</svg>
